<svg width="28" height="32" viewBox="0 0 28 32" fill="none" xmlns="http://www.w3.org/2000/svg">
<path d="M24.9635 3.06365C21.0998 -0.800025 14.808 -0.800025 10.9484 3.06365L0.243367 13.7605C0.17364 13.8302 0.136726 13.9246 0.136726 14.023C0.136726 14.1215 0.17364 14.2158 0.243367 14.2855L1.75684 15.799C1.82602 15.8679 1.91967 15.9065 2.01729 15.9065C2.11491 15.9065 2.20856 15.8679 2.27774 15.799L12.9828 5.10212C14.3117 3.77322 16.0795 3.04314 17.958 3.04314C19.8365 3.04314 21.6043 3.77322 22.9291 5.10212C24.258 6.43103 24.9881 8.1988 24.9881 10.0732C24.9881 11.9517 24.258 13.7154 22.9291 15.0443L12.019 25.9504L10.2512 27.7181C8.59825 29.3711 5.91173 29.3711 4.2588 27.7181C3.45899 26.9183 3.02012 25.856 3.02012 24.724C3.02012 23.592 3.45899 22.5297 4.2588 21.7299L15.0828 10.9099C15.3576 10.6392 15.7186 10.4875 16.1041 10.4875H16.1082C16.4938 10.4875 16.8506 10.6392 17.1213 10.9099C17.3961 11.1847 17.5438 11.5457 17.5438 11.9312C17.5438 12.3127 17.392 12.6736 17.1213 12.9443L8.27423 21.7832C8.2045 21.8529 8.16759 21.9472 8.16759 22.0457C8.16759 22.1441 8.2045 22.2385 8.27423 22.3082L9.7877 23.8217C9.85688 23.8905 9.95053 23.9292 10.0482 23.9292C10.1458 23.9292 10.2394 23.8905 10.3086 23.8217L19.1516 14.9787C19.9678 14.1625 20.4149 13.0797 20.4149 11.9271C20.4149 10.7746 19.9637 9.68767 19.1516 8.87556C17.4658 7.18982 14.726 7.19392 13.0402 8.87556L11.9902 9.92966L2.22032 19.6955C1.55722 20.3547 1.0316 21.139 0.67393 22.0029C0.31626 22.8668 0.133663 23.7931 0.136726 24.7281C0.136726 26.6271 0.879109 28.4113 2.22032 29.7525C3.61075 31.1388 5.43184 31.832 7.25294 31.832C9.07403 31.832 10.8951 31.1388 12.2815 29.7525L24.9635 17.0787C26.8297 15.2084 27.8633 12.7187 27.8633 10.0732C27.8674 7.42361 26.8338 4.93396 24.9635 3.06365Z" fill="#333333"/>
</svg>
