<svg xmlns="http://www.w3.org/2000/svg" xmlns:xlink="http://www.w3.org/1999/xlink" width="500" zoomAndPan="magnify" viewBox="0 0 375 374.999991" height="500" preserveAspectRatio="xMidYMid meet" version="1.0"><path fill="#c8c7c7" d="M 69.378906 374.949219 C 38.804688 374.949219 14.023438 372.253906 14.023438 368.933594 C 14.023438 365.613281 38.804688 362.917969 69.378906 362.917969 C 99.957031 362.917969 124.742188 365.613281 124.742188 368.933594 C 124.742188 372.253906 99.957031 374.949219 69.378906 374.949219 " fill-opacity="1" fill-rule="nonzero"/><path fill="#c8c7c7" d="M 310.546875 374.949219 C 279.972656 374.949219 255.1875 372.253906 255.1875 368.933594 C 255.1875 365.613281 279.972656 362.917969 310.546875 362.917969 C 341.121094 362.917969 365.910156 365.613281 365.910156 368.933594 C 365.910156 372.253906 341.121094 374.949219 310.546875 374.949219 " fill-opacity="1" fill-rule="nonzero"/><path fill="#a4643f" d="M 95.703125 191.207031 L 162.386719 170.394531 L 145.039062 178.496094 L 89.566406 209.671875 L 95.703125 191.207031 " fill-opacity="1" fill-rule="nonzero"/><path fill="#a4643f" d="M 143.890625 177.929688 L 168.9375 135.234375 L 174.320312 139.78125 L 162.386719 170.394531 L 143.890625 177.929688 " fill-opacity="1" fill-rule="nonzero"/><path fill="#a4643f" d="M 51.171875 198.230469 L 3.390625 241.5625 L 4.722656 222.464844 L 38 183.910156 L 51.171875 198.230469 " fill-opacity="1" fill-rule="nonzero"/><path fill="#22242a" d="M 41.789062 367.410156 L 66.8125 367.410156 L 66.8125 364.136719 L 52.03125 360.867188 L 41.789062 360.867188 L 41.789062 367.410156 " fill-opacity="1" fill-rule="nonzero"/><path fill="#22242a" d="M 72.242188 367.410156 L 97.269531 367.410156 L 97.269531 364.136719 L 82.488281 360.867188 L 72.242188 360.867188 L 72.242188 367.410156 " fill-opacity="1" fill-rule="nonzero"/><path fill="#444c5b" d="M 40.15625 287.53125 L 94.820312 287.53125 L 94.820312 250.953125 L 40.15625 250.953125 Z M 40.15625 287.53125 " fill-opacity="1" fill-rule="nonzero"/><path fill="#444c5b" d="M 67.492188 287.53125 C 67.492188 287.53125 76.285156 348.019531 70.644531 362.792969 L 82.953125 362.792969 C 82.953125 362.792969 95.871094 310.386719 94.828125 287.53125 C 88.582031 275.566406 67.492188 287.53125 67.492188 287.53125 " fill-opacity="1" fill-rule="nonzero"/><path fill="#444c5b" d="M 40.089844 287.53125 C 40.089844 287.53125 46.460938 348.019531 40.820312 362.792969 L 53.128906 362.792969 C 53.128906 362.792969 68.46875 310.386719 67.425781 287.53125 C 61.179688 275.566406 40.089844 287.53125 40.089844 287.53125 " fill-opacity="1" fill-rule="nonzero"/><path fill="#f89d24" d="M 38.097656 266.703125 C 26.902344 185.414062 50.976562 176.769531 68.671875 176.769531 C 86.363281 176.769531 108.089844 189.023438 96.472656 266.703125 L 38.097656 266.703125 " fill-opacity="1" fill-rule="nonzero"/><path fill="#a4643f" d="M 5.769531 221.734375 L 30.964844 264.34375 L 24.378906 266.847656 L 3.390625 241.5625 L 5.769531 221.734375 " fill-opacity="1" fill-rule="nonzero"/><path fill="#a4643f" d="M 37.792969 270.71875 C 40.476562 276.214844 33.886719 278.238281 33.886719 278.238281 C 33.886719 278.238281 28.242188 282.191406 25.558594 276.695312 C 22.875 271.199219 23.4375 265.410156 26.820312 263.757812 C 30.199219 262.109375 35.113281 265.226562 37.792969 270.71875 " fill-opacity="1" fill-rule="nonzero"/><path fill="#a4643f" d="M 42.691406 269.242188 C 43.675781 271.265625 39.160156 268.292969 36.996094 269.347656 C 34.835938 270.402344 32.9375 270.882812 31.945312 268.855469 C 30.957031 266.832031 28.363281 264.652344 30.523438 263.59375 C 32.683594 262.539062 41.699219 267.214844 42.691406 269.242188 " fill-opacity="1" fill-rule="nonzero"/><path fill="#a4643f" d="M 29.980469 277.515625 C 31.375 281.191406 35.40625 286.3125 34.210938 286.769531 C 33.007812 287.226562 26.710938 279.804688 25.320312 276.128906 C 23.925781 272.457031 26.757812 274.375 27.957031 273.921875 C 29.160156 273.464844 28.585938 273.839844 29.980469 277.515625 " fill-opacity="1" fill-rule="nonzero"/><path fill="#a4643f" d="M 34.265625 279.1875 C 35.992188 282.71875 40.476562 287.457031 39.320312 288.019531 C 38.167969 288.582031 31.707031 281.046875 29.980469 277.515625 C 28.257812 273.984375 30.769531 276.355469 31.921875 275.792969 C 33.078125 275.230469 32.542969 275.65625 34.265625 279.1875 " fill-opacity="1" fill-rule="nonzero"/><path fill="#a4643f" d="M 38.007812 278.261719 C 39.730469 281.792969 44.210938 286.53125 43.054688 287.09375 C 41.90625 287.65625 34.957031 279.996094 33.234375 276.464844 C 31.507812 272.933594 34.507812 275.429688 35.660156 274.867188 C 36.8125 274.304688 36.277344 274.734375 38.007812 278.261719 " fill-opacity="1" fill-rule="nonzero"/><path fill="#a4643f" d="M 39.640625 274.761719 C 41.363281 278.292969 45.257812 283.007812 44.105469 283.574219 C 42.953125 284.136719 36.964844 276.632812 35.242188 273.097656 C 33.515625 269.570312 36.421875 271.089844 37.570312 270.523438 C 37.570312 270.523438 37.914062 271.230469 39.640625 274.761719 " fill-opacity="1" fill-rule="nonzero"/><path fill="#f89d24" d="M 97.859375 181 L 148.511719 164.058594 L 168.9375 135.234375 L 175.355469 142.324219 L 157.488281 183.28125 L 103.453125 215.324219 L 75.640625 221.839844 L 75.640625 176.769531 L 97.859375 181 " fill-opacity="1" fill-rule="nonzero"/><path fill="#2b2f37" d="M 56.328125 272.566406 L 94.390625 272.566406 L 94.390625 271.488281 L 56.328125 271.488281 Z M 56.328125 272.566406 " fill-opacity="1" fill-rule="nonzero"/><path fill="#2b2f37" d="M 62.097656 282.90625 C 61.753906 282.789062 61.40625 282.683594 61.050781 282.601562 C 61.113281 282.460938 61.171875 282.320312 61.230469 282.179688 C 62.722656 278.554688 62.902344 274.652344 62.921875 273.8125 C 62.921875 273.695312 62.921875 273.644531 62.921875 273.644531 L 64 273.644531 C 64 273.671875 64 275.949219 63.378906 278.816406 C 63.097656 280.109375 62.691406 281.523438 62.097656 282.90625 " fill-opacity="1" fill-rule="nonzero"/><path fill="#2b2f37" d="M 51.917969 290.164062 C 51.914062 290.164062 51.90625 290.164062 51.902344 290.164062 L 51.902344 289.089844 C 54.496094 289.085938 56.425781 288.261719 57.925781 286.992188 C 59.308594 285.820312 60.320312 284.257812 61.050781 282.601562 C 61.40625 282.683594 61.753906 282.789062 62.097656 282.90625 C 61.367188 284.585938 60.363281 286.222656 58.953125 287.527344 C 57.242188 289.105469 54.925781 290.164062 51.917969 290.164062 " fill-opacity="1" fill-rule="nonzero"/><path fill="#f89d24" d="M 40.699219 181 L 0.351562 217.957031 L 0.351562 241.5625 L 24.378906 266.847656 L 30.523438 263.59375 L 17.179688 233.210938 L 32.089844 221.839844 L 62.921875 221.839844 L 62.921875 176.769531 L 40.699219 181 " fill-opacity="1" fill-rule="nonzero"/><path fill="#f9ad64" d="M 56.59375 201.644531 C 51.714844 166.265625 64.992188 177.382812 69.894531 177.589844 C 75.300781 177.382812 87.046875 167.835938 81.996094 201.644531 L 69.429688 210.800781 L 56.59375 201.644531 " fill-opacity="1" fill-rule="nonzero"/><path fill="#f9ad64" d="M 27.28125 253.738281 L 32.023438 263.570312 L 25.492188 269.242188 L 14.449219 263.492188 L 27.28125 253.738281 " fill-opacity="1" fill-rule="nonzero"/><path fill="#a4643f" d="M 180.675781 127.40625 C 180.761719 121.292969 173.9375 122.273438 173.9375 122.273438 C 173.9375 122.273438 167.144531 121.09375 167.054688 127.207031 C 166.96875 133.328125 169.945312 138.324219 173.707031 138.378906 C 177.464844 138.433594 180.585938 133.515625 180.675781 127.40625 " fill-opacity="1" fill-rule="nonzero"/><path fill="#a4643f" d="M 185.734375 126.664062 C 185.765625 124.410156 182.941406 129.023438 180.539062 128.988281 C 178.132812 128.953125 176.207031 129.328125 176.171875 131.582031 C 176.144531 133.835938 174.722656 136.914062 177.125 136.953125 C 179.53125 136.984375 185.703125 128.917969 185.734375 126.664062 " fill-opacity="1" fill-rule="nonzero"/><path fill="#a4643f" d="M 170.714844 124.585938 C 170.410156 120.664062 171.878906 114.308594 170.597656 114.414062 C 169.316406 114.511719 166.78125 123.902344 167.082031 127.820312 C 167.386719 131.742188 169.132812 128.796875 170.414062 128.699219 C 171.691406 128.601562 171.015625 128.5 170.714844 124.585938 " fill-opacity="1" fill-rule="nonzero"/><path fill="#a4643f" d="M 173.878906 121.242188 C 173.9375 117.316406 175.976562 111.125 174.695312 111.105469 C 173.40625 111.085938 170.769531 120.652344 170.714844 124.585938 C 170.65625 128.511719 171.917969 125.296875 173.203125 125.3125 C 174.488281 125.332031 173.820312 125.171875 173.878906 121.242188 " fill-opacity="1" fill-rule="nonzero"/><path fill="#a4643f" d="M 177.652344 120.492188 C 177.710938 116.5625 179.753906 110.367188 178.46875 110.347656 C 177.183594 110.335938 174.15625 120.222656 174.097656 124.152344 C 174.042969 128.082031 175.691406 124.542969 176.976562 124.5625 C 178.261719 124.582031 177.59375 124.421875 177.652344 120.492188 " fill-opacity="1" fill-rule="nonzero"/><path fill="#a4643f" d="M 180.621094 122.964844 C 180.679688 119.035156 182.195312 113.109375 180.914062 113.089844 C 179.628906 113.074219 177.402344 122.414062 177.351562 126.34375 C 177.292969 130.273438 179.273438 127.660156 180.554688 127.675781 C 180.554688 127.675781 180.566406 126.894531 180.621094 122.964844 " fill-opacity="1" fill-rule="nonzero"/><path fill="#a4643f" d="M 63.125 185.308594 L 75.640625 185.308594 L 75.640625 159.882812 L 63.125 159.882812 Z M 63.125 185.308594 " fill-opacity="1" fill-rule="nonzero"/><path fill="#804d30" d="M 75.640625 181.074219 C 70.753906 179.285156 66.617188 176.988281 63.125 174.328125 L 63.125 163.417969 C 66.523438 166.527344 70.652344 169.246094 75.640625 171.40625 L 75.640625 181.074219 " fill-opacity="1" fill-rule="nonzero"/><path fill="#a4643f" d="M 48.320312 124.777344 C 48.320312 146.996094 57.808594 176.769531 105.625 176.769531 C 127.84375 176.769531 128.773438 146.996094 128.773438 124.777344 C 128.773438 102.5625 110.765625 84.546875 88.550781 84.546875 C 66.332031 84.546875 48.320312 102.5625 48.320312 124.777344 " fill-opacity="1" fill-rule="nonzero"/><path fill="#ffffff" d="M 91.402344 138.753906 C 91.402344 144.09375 93.769531 148.425781 96.691406 148.425781 C 99.609375 148.425781 101.976562 144.09375 101.976562 138.753906 C 101.976562 133.410156 99.609375 129.078125 96.691406 129.078125 C 93.769531 129.078125 91.402344 133.410156 91.402344 138.753906 " fill-opacity="1" fill-rule="nonzero"/><path fill="#180a0d" d="M 93.425781 141.695312 C 93.425781 145.542969 95.128906 148.660156 97.230469 148.660156 C 99.332031 148.660156 101.035156 145.542969 101.035156 141.695312 C 101.035156 137.851562 99.332031 134.734375 97.230469 134.734375 C 95.128906 134.734375 93.425781 137.851562 93.425781 141.695312 " fill-opacity="1" fill-rule="nonzero"/><path fill="#ffffff" d="M 117.726562 138.753906 C 117.726562 144.09375 120.09375 148.425781 123.019531 148.425781 C 125.9375 148.425781 128.304688 144.09375 128.304688 138.753906 C 128.304688 133.410156 125.9375 129.078125 123.019531 129.078125 C 120.09375 129.078125 117.726562 133.410156 117.726562 138.753906 " fill-opacity="1" fill-rule="nonzero"/><path fill="#180a0d" d="M 119.75 141.695312 C 119.75 145.542969 121.453125 148.660156 123.554688 148.660156 C 125.660156 148.660156 127.363281 145.542969 127.363281 141.695312 C 127.363281 137.851562 125.660156 134.734375 123.554688 134.734375 C 121.453125 134.734375 119.75 137.851562 119.75 141.695312 " fill-opacity="1" fill-rule="nonzero"/><path fill="#ffffff" d="M 92.550781 136.699219 C 92.550781 137.488281 93.628906 138.125 94.964844 138.125 C 96.296875 138.125 97.378906 137.488281 97.378906 136.699219 C 97.378906 135.910156 96.296875 135.269531 94.964844 135.269531 C 93.628906 135.269531 92.550781 135.910156 92.550781 136.699219 " fill-opacity="1" fill-rule="nonzero"/><path fill="#ffffff" d="M 118.722656 136.699219 C 118.722656 137.488281 119.804688 138.125 121.140625 138.125 C 122.472656 138.125 123.554688 137.488281 123.554688 136.699219 C 123.554688 135.910156 122.472656 135.269531 121.140625 135.269531 C 119.804688 135.269531 118.722656 135.910156 118.722656 136.699219 " fill-opacity="1" fill-rule="nonzero"/><path fill="#321817" d="M 100.375 127.40625 C 100.375 127.40625 100.21875 127.371094 99.945312 127.316406 C 99.714844 127.257812 99.277344 127.210938 98.789062 127.148438 C 98.28125 127.117188 97.691406 127.042969 97.042969 127.054688 C 96.71875 127.050781 96.382812 127.046875 96.042969 127.039062 C 95.699219 127.058594 95.351562 127.078125 95.007812 127.09375 C 94.304688 127.113281 93.609375 127.195312 92.957031 127.28125 C 92.292969 127.347656 91.679688 127.433594 91.160156 127.542969 C 90.109375 127.738281 89.40625 127.867188 89.40625 127.867188 C 89.40625 127.867188 90.058594 127.570312 91.035156 127.121094 C 91.519531 126.882812 92.101562 126.648438 92.738281 126.417969 C 93.375 126.171875 94.054688 125.914062 94.753906 125.714844 C 95.105469 125.609375 95.457031 125.5 95.804688 125.394531 C 96.152344 125.308594 96.503906 125.226562 96.839844 125.144531 C 97.511719 124.96875 98.164062 124.882812 98.71875 124.78125 C 99.289062 124.710938 99.742188 124.644531 100.125 124.636719 C 100.472656 124.625 100.671875 124.613281 100.671875 124.613281 C 101.453125 124.585938 102.113281 125.195312 102.140625 125.976562 C 102.171875 126.757812 101.5625 127.417969 100.78125 127.449219 C 100.664062 127.453125 100.546875 127.445312 100.441406 127.421875 L 100.375 127.40625 " fill-opacity="1" fill-rule="nonzero"/><path fill="#321817" d="M 119.035156 124.613281 C 119.035156 124.613281 119.234375 124.625 119.582031 124.636719 C 119.964844 124.644531 120.414062 124.710938 120.988281 124.78125 C 121.542969 124.882812 122.195312 124.96875 122.867188 125.144531 C 123.207031 125.226562 123.550781 125.308594 123.902344 125.394531 C 124.25 125.5 124.601562 125.609375 124.953125 125.714844 C 125.652344 125.914062 126.335938 126.171875 126.96875 126.417969 C 127.605469 126.648438 128.1875 126.882812 128.675781 127.121094 C 129.652344 127.570312 130.300781 127.867188 130.300781 127.867188 C 130.300781 127.867188 129.597656 127.738281 128.546875 127.542969 C 128.027344 127.433594 127.414062 127.347656 126.753906 127.28125 C 126.097656 127.195312 125.402344 127.113281 124.699219 127.09375 C 124.351562 127.078125 124.007812 127.058594 123.664062 127.039062 C 123.324219 127.046875 122.988281 127.050781 122.664062 127.054688 C 122.015625 127.042969 121.425781 127.117188 120.921875 127.148438 C 120.429688 127.210938 119.996094 127.257812 119.757812 127.316406 C 119.488281 127.371094 119.332031 127.40625 119.332031 127.40625 L 119.273438 127.417969 C 118.503906 127.578125 117.753906 127.089844 117.59375 126.324219 C 117.433594 125.558594 117.921875 124.804688 118.6875 124.644531 C 118.804688 124.621094 118.925781 124.613281 119.035156 124.613281 " fill-opacity="1" fill-rule="nonzero"/><path fill="#804d30" d="M 110.371094 158.492188 C 109.65625 158.492188 109.042969 158.230469 108.722656 157.582031 L 108.722656 142.546875 C 108.722656 142.546875 115.230469 152.773438 114.796875 155.832031 C 114.648438 156.851562 112.179688 158.492188 110.371094 158.492188 " fill-opacity="1" fill-rule="nonzero"/><path fill="#ffffff" d="M 117.4375 162.296875 C 116.964844 164.464844 113.757812 168.613281 109.851562 168.613281 C 105.953125 168.613281 102.742188 164.464844 102.269531 162.296875 L 117.4375 162.296875 " fill-opacity="1" fill-rule="nonzero"/><path fill="#321817" d="M 61.46875 74.988281 C 140.820312 61.523438 128.773438 120.03125 128.773438 120.03125 L 126.214844 109.101562 L 89.730469 110.003906 L 77.019531 127.796875 L 74.0625 148.777344 L 62.375 150.0625 L 60.179688 158.675781 C 60.179688 158.675781 44.3125 161.6875 39.511719 105.023438 C 38.359375 95.792969 42.832031 77.425781 61.46875 74.988281 " fill-opacity="1" fill-rule="nonzero"/><path fill="#a4643f" d="M 68.800781 133.300781 C 69.367188 133.300781 69.917969 133.417969 70.445312 133.617188 L 72.605469 151.871094 C 72.078125 152.070312 66.980469 153.089844 66.410156 153.089844 C 62.863281 153.089844 62.375 145.058594 62.375 139.949219 C 62.375 134.839844 65.253906 133.300781 68.800781 133.300781 " fill-opacity="1" fill-rule="nonzero"/><path fill="#200e0c" d="M 56.792969 111.554688 C 56.792969 111.554688 57.1875 110.617188 58.042969 109.054688 C 58.921875 107.5 60.195312 105.285156 62.019531 102.816406 C 62.925781 101.582031 63.953125 100.269531 65.113281 98.949219 C 66.28125 97.625 67.542969 96.261719 68.964844 94.957031 C 70.359375 93.628906 71.898438 92.355469 73.519531 91.132812 C 75.175781 89.957031 76.886719 88.792969 78.707031 87.8125 C 80.515625 86.804688 82.421875 85.988281 84.316406 85.253906 C 85.277344 84.90625 86.242188 84.605469 87.199219 84.320312 C 88.171875 84.09375 89.121094 83.824219 90.078125 83.644531 C 91.035156 83.496094 91.964844 83.277344 92.894531 83.203125 C 93.824219 83.128906 94.726562 83.007812 95.617188 82.984375 C 96.5 82.972656 97.363281 82.957031 98.191406 82.945312 C 99.023438 83.003906 99.828125 83.054688 100.597656 83.101562 C 101.363281 83.136719 102.09375 83.285156 102.785156 83.378906 C 103.480469 83.492188 104.140625 83.558594 104.746094 83.714844 C 105.957031 84.011719 107.023438 84.195312 107.875 84.472656 C 109.582031 84.996094 110.542969 85.316406 110.542969 85.316406 C 110.542969 85.316406 109.535156 85.144531 107.800781 84.804688 C 106.9375 84.613281 105.859375 84.527344 104.644531 84.355469 C 104.039062 84.257812 103.382812 84.253906 102.699219 84.207031 C 102.082031 84.1875 101.441406 84.097656 100.769531 84.097656 C 100.695312 84.097656 100.617188 84.097656 100.539062 84.101562 C 99.789062 84.101562 99.007812 84.105469 98.199219 84.109375 C 97.390625 84.164062 96.5625 84.21875 95.703125 84.277344 C 93.996094 84.449219 92.214844 84.738281 90.394531 85.136719 C 89.484375 85.335938 88.578125 85.625 87.652344 85.871094 C 86.746094 86.179688 85.828125 86.488281 84.910156 86.824219 C 83.089844 87.546875 81.269531 88.347656 79.542969 89.335938 C 77.777344 90.257812 76.117188 91.367188 74.503906 92.488281 C 72.933594 93.660156 71.378906 94.820312 69.988281 96.085938 C 68.578125 97.320312 67.269531 98.582031 66.066406 99.820312 C 64.875 101.066406 63.777344 102.28125 62.796875 103.429688 C 60.847656 105.742188 59.328125 107.765625 58.328125 109.230469 C 57.324219 110.683594 56.792969 111.554688 56.792969 111.554688 " fill-opacity="1" fill-rule="nonzero"/><path fill="#200e0c" d="M 58.851562 114.949219 C 58.851562 114.949219 59.441406 114.125 60.621094 112.796875 C 61.8125 111.488281 63.527344 109.609375 65.824219 107.597656 C 66.960938 106.578125 68.238281 105.523438 69.628906 104.46875 C 71.03125 103.414062 72.527344 102.328125 74.160156 101.328125 C 75.773438 100.292969 77.503906 99.324219 79.300781 98.417969 C 81.121094 97.546875 82.988281 96.703125 84.921875 96.011719 L 86.371094 95.503906 L 87.847656 95.0625 C 88.820312 94.75 89.820312 94.542969 90.796875 94.296875 C 91.777344 94.050781 92.777344 93.914062 93.75 93.734375 C 94.730469 93.59375 95.707031 93.496094 96.660156 93.382812 C 97.621094 93.328125 98.566406 93.265625 99.492188 93.234375 C 100.417969 93.25 101.324219 93.269531 102.203125 93.285156 C 103.082031 93.355469 103.9375 93.425781 104.761719 93.492188 C 105.582031 93.582031 106.367188 93.742188 107.128906 93.851562 C 107.886719 93.953125 108.597656 94.125 109.277344 94.292969 C 109.953125 94.46875 110.601562 94.59375 111.195312 94.785156 C 112.371094 95.175781 113.414062 95.464844 114.242188 95.785156 C 115.890625 96.449219 116.8125 96.84375 116.8125 96.84375 C 116.8125 96.84375 115.828125 96.589844 114.136719 96.109375 C 113.292969 95.867188 112.234375 95.683594 111.042969 95.410156 C 110.449219 95.285156 109.796875 95.21875 109.121094 95.113281 C 108.445312 95.015625 107.738281 94.886719 106.992188 94.839844 C 106.242188 94.78125 105.46875 94.683594 104.664062 94.652344 C 103.859375 94.628906 103.027344 94.601562 102.171875 94.578125 C 101.320312 94.605469 100.441406 94.632812 99.546875 94.664062 C 98.652344 94.742188 97.742188 94.820312 96.816406 94.902344 C 95.894531 95.046875 94.957031 95.164062 94.015625 95.328125 C 93.082031 95.535156 92.125 95.6875 91.179688 95.929688 C 90.234375 96.171875 89.269531 96.386719 88.332031 96.699219 L 86.914062 97.136719 L 85.511719 97.644531 C 83.636719 98.292969 81.808594 99.09375 80.039062 99.925781 C 78.285156 100.800781 76.554688 101.660156 74.953125 102.628906 C 71.714844 104.507812 68.847656 106.539062 66.457031 108.363281 C 64.070312 110.195312 62.152344 111.832031 60.859375 113.03125 C 59.5625 114.226562 58.851562 114.949219 58.851562 114.949219 " fill-opacity="1" fill-rule="nonzero"/><path fill="#f9ad64" d="M 161.011719 144.746094 L 168.109375 135.445312 L 175.660156 139.664062 L 173.992188 152 L 161.011719 144.746094 " fill-opacity="1" fill-rule="nonzero"/><path fill="#f5a26a" d="M 282.335938 191.207031 L 233.71875 183.703125 L 218.5625 188.855469 L 235.910156 196.957031 L 288.472656 209.671875 L 282.335938 191.207031 " fill-opacity="1" fill-rule="nonzero"/><path fill="#f5a26a" d="M 218.5625 188.855469 L 202.109375 143.132812 L 208.972656 141.542969 L 233.71875 183.703125 L 218.5625 188.855469 " fill-opacity="1" fill-rule="nonzero"/><path fill="#f5a26a" d="M 196.207031 135.886719 C 194.292969 130.078125 201.097656 128.972656 201.097656 128.972656 C 201.097656 128.972656 207.226562 125.816406 209.140625 131.625 C 211.054688 137.433594 209.707031 143.097656 206.136719 144.273438 C 202.566406 145.453125 198.121094 141.691406 196.207031 135.886719 " fill-opacity="1" fill-rule="nonzero"/><path fill="#f5a26a" d="M 191.15625 136.691406 C 190.449219 134.550781 194.527344 138.109375 196.808594 137.355469 C 199.097656 136.605469 201.042969 136.386719 201.75 138.527344 C 202.453125 140.667969 204.730469 143.179688 202.445312 143.933594 C 200.160156 144.683594 191.859375 138.832031 191.15625 136.691406 " fill-opacity="1" fill-rule="nonzero"/><path fill="#f5a26a" d="M 204.867188 130.214844 C 203.984375 126.386719 200.6875 120.757812 201.9375 120.472656 C 203.1875 120.183594 208.417969 128.390625 209.300781 132.222656 C 210.179688 136.046875 207.636719 133.765625 206.386719 134.050781 C 205.132812 134.339844 205.753906 134.042969 204.867188 130.214844 " fill-opacity="1" fill-rule="nonzero"/><path fill="#f5a26a" d="M 200.847656 127.976562 C 199.617188 124.242188 195.820312 118.945312 197.042969 118.539062 C 198.257812 118.140625 203.640625 126.480469 204.867188 130.214844 C 206.09375 133.949219 203.929688 131.257812 202.710938 131.65625 C 201.492188 132.0625 202.078125 131.707031 200.847656 127.976562 " fill-opacity="1" fill-rule="nonzero"/><path fill="#f5a26a" d="M 197.019531 128.386719 C 195.792969 124.652344 191.992188 119.351562 193.210938 118.953125 C 194.429688 118.550781 200.277344 127.082031 201.503906 130.8125 C 202.738281 134.550781 200.101562 131.667969 198.882812 132.070312 C 197.664062 132.46875 198.25 132.117188 197.019531 128.386719 " fill-opacity="1" fill-rule="nonzero"/><path fill="#f5a26a" d="M 194.925781 131.632812 C 193.695312 127.902344 190.476562 122.699219 191.695312 122.300781 C 192.914062 121.898438 197.832031 130.144531 199.058594 133.878906 C 200.289062 137.609375 197.617188 135.707031 196.402344 136.109375 C 196.402344 136.109375 196.15625 135.367188 194.925781 131.632812 " fill-opacity="1" fill-rule="nonzero"/><path fill="#f5a26a" d="M 326.875 198.230469 L 374.652344 241.5625 L 373.324219 222.464844 L 340.042969 183.910156 L 326.875 198.230469 " fill-opacity="1" fill-rule="nonzero"/><path fill="#40b5e7" d="M 337.339844 181 L 365.984375 203.617188 L 357.007812 230.464844 L 345.953125 221.839844 L 315.117188 221.839844 L 315.117188 176.769531 L 337.339844 181 " fill-opacity="1" fill-rule="nonzero"/><path fill="#253060" d="M 336.257812 367.410156 L 311.234375 367.410156 L 311.234375 364.136719 L 326.011719 360.867188 L 336.257812 360.867188 L 336.257812 367.410156 " fill-opacity="1" fill-rule="nonzero"/><path fill="#253060" d="M 305.796875 367.410156 L 280.773438 367.410156 L 280.773438 364.136719 L 295.550781 360.867188 L 305.796875 360.867188 L 305.796875 367.410156 " fill-opacity="1" fill-rule="nonzero"/><path fill="#394a94" d="M 283.222656 287.53125 L 337.886719 287.53125 L 337.886719 250.953125 L 283.222656 250.953125 Z M 283.222656 287.53125 " fill-opacity="1" fill-rule="nonzero"/><path fill="#394a94" d="M 310.546875 287.53125 C 310.546875 287.53125 301.753906 348.019531 307.398438 362.792969 L 295.085938 362.792969 C 295.085938 362.792969 282.167969 310.386719 283.21875 287.53125 C 289.460938 275.566406 310.546875 287.53125 310.546875 287.53125 " fill-opacity="1" fill-rule="nonzero"/><path fill="#394a94" d="M 337.949219 287.53125 C 337.949219 287.53125 331.585938 348.019531 337.222656 362.792969 L 324.914062 362.792969 C 324.914062 362.792969 309.570312 310.386719 310.621094 287.53125 C 316.863281 275.566406 337.949219 287.53125 337.949219 287.53125 " fill-opacity="1" fill-rule="nonzero"/><path fill="#40b5e7" d="M 339.945312 266.703125 C 351.136719 185.414062 327.066406 176.769531 309.375 176.769531 C 291.679688 176.769531 269.957031 189.023438 281.570312 266.703125 L 339.945312 266.703125 " fill-opacity="1" fill-rule="nonzero"/><path fill="#f5a26a" d="M 314.917969 181.074219 L 302.40625 185.308594 L 302.40625 159.882812 L 314.917969 159.882812 L 314.917969 181.074219 " fill-opacity="1" fill-rule="nonzero"/><path fill="#bf7d52" d="M 302.40625 181.074219 L 302.40625 171.40625 C 307.390625 169.246094 311.515625 166.527344 314.917969 163.417969 L 314.917969 174.328125 C 311.429688 176.988281 307.289062 179.285156 302.40625 181.074219 " fill-opacity="1" fill-rule="nonzero"/><path fill="#f5a26a" d="M 329.71875 124.777344 C 329.71875 146.996094 320.234375 176.769531 272.414062 176.769531 C 250.199219 176.769531 249.265625 146.996094 249.265625 124.777344 C 249.265625 102.5625 267.277344 84.546875 289.496094 84.546875 C 311.710938 84.546875 329.71875 102.5625 329.71875 124.777344 " fill-opacity="1" fill-rule="nonzero"/><path fill="#f5a26a" d="M 372.269531 221.734375 L 347.078125 264.34375 L 353.664062 266.847656 L 374.652344 241.5625 L 372.269531 221.734375 " fill-opacity="1" fill-rule="nonzero"/><path fill="#f5a26a" d="M 340.25 270.71875 C 337.566406 276.214844 344.160156 278.238281 344.160156 278.238281 C 344.160156 278.238281 349.804688 282.191406 352.488281 276.695312 C 355.171875 271.199219 354.601562 265.410156 351.226562 263.757812 C 347.84375 262.109375 342.933594 265.226562 340.25 270.71875 " fill-opacity="1" fill-rule="nonzero"/><path fill="#f5a26a" d="M 335.351562 269.242188 C 334.363281 271.265625 338.882812 268.292969 341.046875 269.347656 C 343.210938 270.402344 345.109375 270.882812 346.097656 268.855469 C 347.085938 266.832031 349.683594 264.652344 347.519531 263.59375 C 345.359375 262.539062 336.339844 267.214844 335.351562 269.242188 " fill-opacity="1" fill-rule="nonzero"/><path fill="#f5a26a" d="M 348.0625 277.515625 C 346.667969 281.191406 342.632812 286.3125 343.835938 286.769531 C 345.035156 287.226562 351.328125 279.804688 352.722656 276.128906 C 354.121094 272.457031 351.285156 274.375 350.085938 273.921875 C 348.886719 273.464844 349.453125 273.839844 348.0625 277.515625 " fill-opacity="1" fill-rule="nonzero"/><path fill="#f5a26a" d="M 343.773438 279.1875 C 342.050781 282.71875 337.570312 287.457031 338.71875 288.019531 C 339.875 288.582031 346.335938 281.046875 348.0625 277.515625 C 349.785156 273.984375 347.273438 276.355469 346.117188 275.792969 C 344.964844 275.230469 345.496094 275.65625 343.773438 279.1875 " fill-opacity="1" fill-rule="nonzero"/><path fill="#f5a26a" d="M 340.039062 278.261719 C 338.316406 281.792969 333.832031 286.53125 334.988281 287.09375 C 336.140625 287.65625 343.089844 279.996094 344.8125 276.464844 C 346.535156 272.933594 343.539062 275.429688 342.382812 274.867188 C 341.226562 274.304688 341.761719 274.734375 340.039062 278.261719 " fill-opacity="1" fill-rule="nonzero"/><path fill="#f5a26a" d="M 338.402344 274.761719 C 336.679688 278.292969 332.78125 283.007812 333.9375 283.574219 C 335.089844 284.136719 341.078125 276.632812 342.800781 273.097656 C 344.527344 269.570312 341.625 271.089844 340.46875 270.523438 C 340.46875 270.523438 340.125 271.230469 338.402344 274.761719 " fill-opacity="1" fill-rule="nonzero"/><path fill="#40b5e7" d="M 280.183594 181 L 244.066406 177.4375 L 250.171875 201.234375 L 274.589844 215.324219 L 302.40625 221.839844 L 302.40625 176.769531 L 280.183594 181 " fill-opacity="1" fill-rule="nonzero"/><path fill="#212a55" d="M 283.65625 272.566406 L 321.714844 272.566406 L 321.714844 271.488281 L 283.65625 271.488281 Z M 283.65625 272.566406 " fill-opacity="1" fill-rule="nonzero"/><path fill="#212a55" d="M 315.949219 282.90625 C 315.792969 282.542969 315.652344 282.179688 315.519531 281.820312 C 314.039062 277.71875 314.042969 273.675781 314.039062 273.644531 L 315.117188 273.644531 L 315.117188 273.734375 C 315.121094 273.800781 315.121094 273.894531 315.125 274.019531 C 315.136719 274.265625 315.15625 274.625 315.195312 275.074219 C 315.265625 275.96875 315.414062 277.210938 315.714844 278.585938 C 315.992188 279.867188 316.398438 281.261719 316.992188 282.601562 C 316.640625 282.683594 316.289062 282.789062 315.949219 282.90625 " fill-opacity="1" fill-rule="nonzero"/><path fill="#212a55" d="M 326.121094 290.164062 C 323.117188 290.164062 320.796875 289.105469 319.09375 287.527344 C 317.683594 286.222656 316.671875 284.585938 315.949219 282.90625 C 316.289062 282.789062 316.640625 282.683594 316.992188 282.601562 C 317.667969 284.136719 318.585938 285.601562 319.820312 286.734375 C 321.367188 288.148438 323.378906 289.085938 326.140625 289.089844 L 326.140625 290.164062 C 326.136719 290.164062 326.128906 290.164062 326.121094 290.164062 " fill-opacity="1" fill-rule="nonzero"/><path fill="#ffffff" d="M 292.109375 246.273438 L 292.109375 242.453125 L 293.75 242.453125 L 293.75 223.335938 L 292.109375 223.335938 L 292.109375 219.511719 L 297.027344 219.511719 L 302.761719 235.953125 L 308.492188 219.511719 L 313.40625 219.511719 L 313.40625 223.335938 L 311.765625 223.335938 L 311.765625 242.453125 L 313.40625 242.453125 L 313.40625 246.273438 L 306.855469 246.273438 L 306.855469 242.453125 L 308.492188 242.453125 L 308.492188 229.835938 L 302.761719 246.273438 L 297.027344 229.835938 L 297.027344 242.453125 L 298.664062 242.453125 L 298.664062 246.273438 L 292.109375 246.273438 " fill-opacity="1" fill-rule="nonzero"/><path fill="#ffffff" d="M 313.601562 195.808594 C 312.507812 195.808594 311.617188 196.84375 311.617188 198.121094 C 311.617188 198.777344 311.851562 199.363281 312.226562 199.785156 L 305.839844 205.035156 L 303.070312 197.335938 C 303.980469 197.125 304.671875 196.191406 304.671875 195.070312 C 304.671875 193.789062 303.78125 192.753906 302.6875 192.753906 C 301.589844 192.753906 300.703125 193.789062 300.703125 195.070312 C 300.703125 196.191406 301.390625 197.125 302.304688 197.335938 L 299.53125 205.035156 L 293.144531 199.785156 C 293.515625 199.363281 293.753906 198.777344 293.753906 198.121094 C 293.753906 196.84375 292.863281 195.808594 291.769531 195.808594 C 290.675781 195.808594 289.789062 196.84375 289.789062 198.121094 C 289.789062 199.402344 290.675781 200.4375 291.769531 200.4375 C 291.957031 200.4375 292.136719 200.398438 292.3125 200.339844 L 294.75 211.121094 L 293.558594 211.121094 L 293.558594 215.324219 L 311.8125 215.324219 L 311.8125 211.121094 L 310.617188 211.121094 L 313.058594 200.339844 C 313.234375 200.398438 313.414062 200.4375 313.601562 200.4375 C 314.695312 200.4375 315.582031 199.402344 315.582031 198.121094 C 315.582031 196.84375 314.695312 195.808594 313.601562 195.808594 " fill-opacity="1" fill-rule="nonzero"/><path fill="#3b1f2b" d="M 277.371094 124.613281 C 277.371094 124.613281 277.570312 124.625 277.914062 124.636719 C 278.300781 124.644531 278.75 124.710938 279.324219 124.78125 C 279.882812 124.882812 280.53125 124.96875 281.203125 125.144531 C 281.539062 125.226562 281.886719 125.308594 282.242188 125.394531 C 282.585938 125.5 282.933594 125.609375 283.285156 125.714844 C 283.992188 125.914062 284.667969 126.171875 285.300781 126.417969 C 285.9375 126.648438 286.523438 126.882812 287.011719 127.121094 C 287.984375 127.570312 288.632812 127.867188 288.632812 127.867188 C 288.632812 127.867188 287.933594 127.738281 286.878906 127.542969 C 286.363281 127.433594 285.75 127.347656 285.089844 127.28125 C 284.433594 127.195312 283.734375 127.113281 283.039062 127.09375 C 282.6875 127.078125 282.339844 127.058594 281.996094 127.039062 C 281.660156 127.046875 281.324219 127.050781 281 127.054688 C 280.355469 127.042969 279.761719 127.117188 279.257812 127.148438 C 278.769531 127.210938 278.332031 127.257812 278.09375 127.316406 C 277.824219 127.371094 277.667969 127.40625 277.667969 127.40625 L 277.609375 127.417969 C 276.839844 127.578125 276.089844 127.089844 275.929688 126.324219 C 275.769531 125.558594 276.261719 124.804688 277.027344 124.644531 C 277.140625 124.621094 277.261719 124.613281 277.371094 124.613281 " fill-opacity="1" fill-rule="nonzero"/><path fill="#3b1f2b" d="M 258.707031 127.40625 C 258.707031 127.40625 258.550781 127.371094 258.28125 127.316406 C 258.046875 127.257812 257.609375 127.210938 257.121094 127.148438 C 256.617188 127.117188 256.023438 127.042969 255.375 127.054688 C 255.054688 127.050781 254.71875 127.046875 254.378906 127.042969 C 254.035156 127.058594 253.6875 127.078125 253.339844 127.09375 C 252.640625 127.113281 251.945312 127.199219 251.289062 127.28125 C 250.632812 127.347656 250.015625 127.433594 249.496094 127.542969 C 248.445312 127.738281 247.746094 127.867188 247.746094 127.867188 C 247.746094 127.867188 248.394531 127.570312 249.371094 127.121094 C 249.859375 126.882812 250.441406 126.648438 251.078125 126.417969 C 251.710938 126.171875 252.386719 125.914062 253.089844 125.714844 C 253.445312 125.609375 253.792969 125.5 254.136719 125.394531 C 254.492188 125.308594 254.839844 125.226562 255.175781 125.144531 C 255.84375 124.96875 256.496094 124.882812 257.054688 124.78125 C 257.625 124.710938 258.074219 124.644531 258.460938 124.636719 C 258.808594 124.625 259.003906 124.613281 259.003906 124.613281 C 259.785156 124.585938 260.445312 125.195312 260.476562 125.976562 C 260.507812 126.757812 259.898438 127.417969 259.117188 127.449219 C 258.996094 127.453125 258.886719 127.445312 258.777344 127.421875 L 258.707031 127.40625 " fill-opacity="1" fill-rule="nonzero"/><path fill="#bf7d52" d="M 269.320312 157.582031 C 267.5625 156.179688 263.449219 157.257812 263.246094 155.832031 C 262.808594 152.773438 269.320312 142.546875 269.320312 142.546875 L 269.320312 157.582031 " fill-opacity="1" fill-rule="nonzero"/><path fill="#ffffff" d="M 260.601562 162.296875 C 261.074219 164.464844 264.011719 170.480469 267.914062 170.480469 C 271.8125 170.480469 279.398438 160.65625 279.871094 158.492188 L 260.601562 162.296875 " fill-opacity="1" fill-rule="nonzero"/><path fill="#4e282c" d="M 318.054688 74.988281 C 238.699219 61.523438 249.738281 118.59375 249.738281 118.59375 L 252.476562 111.292969 C 252.476562 111.292969 283.855469 125.402344 302.40625 112.574219 L 302.496094 127.796875 L 305.457031 148.777344 L 321.824219 151.289062 L 319.339844 158.675781 L 333.726562 151.113281 L 340.066406 79.546875 C 340.066406 79.546875 313.949219 87.105469 318.054688 74.988281 " fill-opacity="1" fill-rule="nonzero"/><path fill="#2e1516" d="M 260.304688 97.664062 C 260.304688 97.664062 261.175781 97.492188 262.699219 97.191406 C 264.222656 96.910156 266.390625 96.441406 268.984375 95.902344 C 271.582031 95.359375 274.601562 94.707031 277.828125 93.957031 C 279.433594 93.574219 281.09375 93.171875 282.78125 92.765625 C 284.46875 92.34375 286.171875 91.898438 287.863281 91.417969 C 289.558594 90.949219 291.257812 90.464844 292.898438 89.929688 C 294.550781 89.402344 296.167969 88.878906 297.714844 88.308594 C 299.257812 87.738281 300.734375 87.160156 302.125 86.566406 C 303.503906 85.960938 304.785156 85.347656 305.949219 84.742188 C 306.523438 84.417969 307.070312 84.109375 307.59375 83.816406 C 308.101562 83.5 308.585938 83.199219 309.035156 82.917969 C 309.90625 82.300781 310.671875 81.761719 311.234375 81.234375 C 311.828125 80.742188 312.242188 80.308594 312.53125 80.003906 C 312.820312 79.703125 312.972656 79.546875 312.972656 79.546875 C 312.972656 79.546875 312.84375 79.722656 312.597656 80.0625 C 312.351562 80.398438 312.007812 80.910156 311.449219 81.460938 C 310.9375 82.054688 310.21875 82.679688 309.394531 83.398438 C 308.960938 83.730469 308.503906 84.089844 308.019531 84.46875 C 307.511719 84.8125 306.976562 85.167969 306.417969 85.542969 C 305.839844 85.890625 305.242188 86.246094 304.617188 86.617188 C 303.980469 86.957031 303.320312 87.316406 302.632812 87.660156 C 301.253906 88.335938 299.78125 89.023438 298.222656 89.636719 C 296.667969 90.253906 295.054688 90.882812 293.382812 91.417969 C 291.71875 91.972656 290.011719 92.484375 288.296875 92.972656 C 284.863281 93.910156 281.394531 94.722656 278.125 95.351562 C 274.851562 95.988281 271.78125 96.472656 269.140625 96.8125 C 266.503906 97.175781 264.285156 97.355469 262.742188 97.5 C 261.195312 97.628906 260.304688 97.664062 260.304688 97.664062 " fill-opacity="1" fill-rule="nonzero"/><path fill="#2e1516" d="M 290.070312 106.976562 C 289.226562 106.976562 288.386719 106.957031 287.5625 106.925781 C 285.273438 106.871094 283.070312 106.664062 280.988281 106.421875 C 278.910156 106.175781 276.953125 105.875 275.160156 105.542969 C 271.566406 104.902344 268.640625 104.042969 266.609375 103.449219 C 264.578125 102.820312 263.453125 102.359375 263.453125 102.359375 C 263.453125 102.359375 264.625 102.6875 266.691406 103.144531 C 268.753906 103.613281 271.722656 104.160156 275.304688 104.652344 C 277.09375 104.894531 279.039062 105.105469 281.101562 105.257812 C 283.164062 105.402344 285.339844 105.488281 287.589844 105.507812 C 287.90625 105.515625 288.222656 105.515625 288.542969 105.515625 C 290.496094 105.515625 292.492188 105.40625 294.515625 105.285156 C 296.867188 105.097656 299.246094 104.832031 301.597656 104.402344 L 303.367188 104.09375 C 303.949219 103.980469 304.527344 103.835938 305.113281 103.710938 C 306.277344 103.472656 307.417969 103.144531 308.550781 102.828125 C 309.695312 102.539062 310.78125 102.109375 311.882812 101.773438 C 312.976562 101.410156 314.019531 100.957031 315.066406 100.5625 C 316.101562 100.121094 317.085938 99.628906 318.074219 99.203125 C 319.03125 98.703125 319.96875 98.21875 320.882812 97.746094 C 321.777344 97.238281 322.621094 96.699219 323.453125 96.203125 C 324.289062 95.707031 325.023438 95.125 325.773438 94.621094 C 326.136719 94.359375 326.507812 94.117188 326.847656 93.855469 C 327.183594 93.585938 327.507812 93.324219 327.828125 93.0625 C 328.46875 92.550781 329.101562 92.085938 329.660156 91.609375 C 330.738281 90.621094 331.722656 89.789062 332.464844 89.042969 C 333.953125 87.53125 334.796875 86.667969 334.796875 86.667969 C 334.796875 86.667969 334.03125 87.609375 332.695312 89.253906 C 332.003906 90.066406 331.082031 90.96875 330.0625 92.054688 C 329.542969 92.578125 328.941406 93.09375 328.328125 93.660156 C 327.71875 94.234375 327.050781 94.800781 326.316406 95.351562 C 325.582031 95.894531 324.855469 96.523438 324.035156 97.066406 C 323.210938 97.609375 322.371094 98.203125 321.480469 98.761719 C 320.570312 99.289062 319.632812 99.832031 318.679688 100.386719 C 317.691406 100.882812 316.675781 101.382812 315.632812 101.867188 C 313.523438 102.773438 311.308594 103.65625 308.988281 104.324219 C 307.828125 104.660156 306.664062 105.003906 305.464844 105.257812 C 304.875 105.390625 304.28125 105.542969 303.679688 105.664062 L 301.871094 105.996094 C 299.460938 106.414062 297.023438 106.667969 294.621094 106.835938 C 293.085938 106.925781 291.566406 106.976562 290.070312 106.976562 " fill-opacity="1" fill-rule="nonzero"/><path fill="#f5a26a" d="M 309.242188 133.300781 C 308.675781 133.300781 308.128906 133.417969 307.601562 133.617188 L 305.441406 151.871094 C 305.964844 152.070312 311.066406 153.089844 311.632812 153.089844 C 315.183594 153.089844 315.667969 145.058594 315.667969 139.949219 C 315.667969 134.839844 312.792969 133.300781 309.242188 133.300781 " fill-opacity="1" fill-rule="nonzero"/><path fill="#8a5939" d="M 287.800781 140.976562 C 287.589844 140.976562 287.375 140.882812 287.238281 140.699219 C 286.042969 139.144531 284.914062 138.140625 283.890625 137.527344 C 282.871094 136.921875 281.957031 136.695312 281.125 136.695312 C 281.121094 136.695312 281.117188 136.695312 281.113281 136.695312 C 279.546875 136.695312 278.183594 137.535156 277.179688 138.464844 C 276.175781 139.386719 275.566406 140.367188 275.519531 140.449219 L 275.515625 140.453125 C 275.378906 140.679688 275.144531 140.800781 274.902344 140.800781 C 274.78125 140.800781 274.65625 140.769531 274.542969 140.703125 C 274.203125 140.503906 274.097656 140.070312 274.292969 139.730469 C 274.308594 139.707031 274.671875 139.097656 275.339844 138.328125 C 276.007812 137.5625 276.976562 136.636719 278.234375 135.996094 C 279.074219 135.570312 280.050781 135.277344 281.125 135.277344 C 281.128906 135.277344 281.128906 135.277344 281.132812 135.277344 C 282.222656 135.277344 283.40625 135.585938 284.621094 136.3125 C 285.835938 137.039062 287.082031 138.175781 288.363281 139.835938 C 288.601562 140.144531 288.542969 140.589844 288.234375 140.828125 C 288.105469 140.925781 287.953125 140.976562 287.800781 140.976562 " fill-opacity="1" fill-rule="nonzero"/><path fill="#8a5939" d="M 263.453125 140.976562 C 263.246094 140.976562 263.035156 140.882812 262.894531 140.699219 C 261.695312 139.144531 260.566406 138.140625 259.546875 137.527344 C 258.523438 136.921875 257.609375 136.695312 256.78125 136.695312 C 256.777344 136.695312 256.773438 136.695312 256.769531 136.695312 C 255.203125 136.695312 253.839844 137.535156 252.835938 138.464844 C 251.832031 139.386719 251.222656 140.367188 251.171875 140.449219 L 251.167969 140.453125 C 251.035156 140.679688 250.800781 140.800781 250.558594 140.800781 C 250.433594 140.800781 250.3125 140.769531 250.195312 140.703125 C 249.859375 140.503906 249.75 140.070312 249.949219 139.730469 C 249.964844 139.707031 250.328125 139.097656 250.996094 138.328125 C 251.664062 137.5625 252.632812 136.636719 253.890625 135.996094 C 254.730469 135.570312 255.703125 135.277344 256.78125 135.277344 C 256.785156 135.277344 256.785156 135.277344 256.789062 135.277344 C 257.878906 135.277344 259.0625 135.585938 260.273438 136.3125 C 261.492188 137.039062 262.738281 138.175781 264.019531 139.835938 C 264.253906 140.144531 264.195312 140.589844 263.886719 140.828125 C 263.757812 140.925781 263.605469 140.976562 263.453125 140.976562 " fill-opacity="1" fill-rule="nonzero"/><path fill="#40b5e7" d="M 239.773438 41.742188 C 239.773438 64.816406 213.335938 83.527344 180.730469 83.527344 C 148.125 83.527344 121.691406 64.816406 121.691406 41.742188 C 121.691406 18.664062 148.125 -0.046875 180.730469 -0.046875 C 213.335938 -0.046875 239.773438 18.664062 239.773438 41.742188 " fill-opacity="1" fill-rule="nonzero"/><path fill="#40b5e7" d="M 189.800781 72.929688 L 150.445312 118.910156 L 167.976562 72.929688 Z M 189.800781 72.929688 " fill-opacity="1" fill-rule="nonzero"/></svg>