<svg width="46" height="48" viewBox="0 0 46 48" fill="none" xmlns="http://www.w3.org/2000/svg">
<path fill-rule="evenodd" clip-rule="evenodd" d="M18.8105 1.08378C19.8183 0.781453 20.8828 0.718913 21.9191 0.901148C22.9554 1.08338 23.9347 1.50535 24.7789 2.13336C25.6231 2.76137 26.3088 3.57803 26.7812 4.51816C27.2537 5.45829 27.4998 6.49586 27.5 7.54803V40.452C27.4998 41.5042 27.2537 42.5418 26.7812 43.4819C26.3088 44.422 25.6231 45.2387 24.7789 45.8667C23.9347 46.4947 22.9554 46.9167 21.9191 47.0989C20.8828 47.2811 19.8183 47.2186 18.8105 46.9163L5.3105 42.8663C3.92023 42.4492 2.70142 41.5951 1.83488 40.4307C0.968346 39.2662 0.500238 37.8535 0.5 36.402V11.598C0.500238 10.1465 0.968346 8.7338 1.83488 7.56937C2.70142 6.40493 3.92023 5.55084 5.3105 5.13378L18.8105 1.08378ZM29.75 6.00003C29.75 5.40329 29.9871 4.83099 30.409 4.40904C30.831 3.98708 31.4033 3.75003 32 3.75003H38.75C40.5402 3.75003 42.2571 4.46119 43.523 5.72706C44.7888 6.99293 45.5 8.70981 45.5 10.5V12.75C45.5 13.3468 45.2629 13.9191 44.841 14.341C44.419 14.763 43.8467 15 43.25 15C42.6533 15 42.081 14.763 41.659 14.341C41.237 13.9191 41 13.3468 41 12.75V10.5C41 9.90329 40.7629 9.33099 40.341 8.90904C39.919 8.48708 39.3467 8.25003 38.75 8.25003H32C31.4033 8.25003 30.831 8.01297 30.409 7.59102C29.9871 7.16906 29.75 6.59676 29.75 6.00003ZM43.25 33C43.8467 33 44.419 33.2371 44.841 33.659C45.2629 34.081 45.5 34.6533 45.5 35.25V37.5C45.5 39.2902 44.7888 41.0071 43.523 42.273C42.2571 43.5389 40.5402 44.25 38.75 44.25H32C31.4033 44.25 30.831 44.013 30.409 43.591C29.9871 43.1691 29.75 42.5968 29.75 42C29.75 41.4033 29.9871 40.831 30.409 40.409C30.831 39.9871 31.4033 39.75 32 39.75H38.75C39.3467 39.75 39.919 39.513 40.341 39.091C40.7629 38.6691 41 38.0968 41 37.5V35.25C41 34.6533 41.237 34.081 41.659 33.659C42.081 33.2371 42.6533 33 43.25 33ZM16.25 21.75C15.6533 21.75 15.081 21.9871 14.659 22.409C14.2371 22.831 14 23.4033 14 24C14 24.5968 14.2371 25.1691 14.659 25.591C15.081 26.013 15.6533 26.25 16.25 26.25H16.2522C16.849 26.25 17.4213 26.013 17.8432 25.591C18.2652 25.1691 18.5022 24.5968 18.5022 24C18.5022 23.4033 18.2652 22.831 17.8432 22.409C17.4213 21.9871 16.849 21.75 16.2522 21.75H16.25Z" fill="white"/>
<path d="M43.25 24L38.75 28.5M32 24H43.25H32ZM43.25 24L38.75 19.5L43.25 24Z" stroke="white" stroke-width="4.16667" stroke-linecap="round" stroke-linejoin="round"/>
</svg>
