<svg width="46" height="44" viewBox="0 0 46 44" fill="none" xmlns="http://www.w3.org/2000/svg">
<path d="M39.0995 6.46335C35.401 2.84742 30.5195 0.598185 25.2967 0.103424C20.0739 -0.391336 14.8371 0.899382 10.489 3.75306C6.14089 6.60673 2.95406 10.8445 1.47791 15.7359C0.00176454 20.6272 0.328796 25.8655 2.40263 30.5477C2.61878 30.9829 2.6897 31.4728 2.6055 31.949L0.621886 41.2105C0.545463 41.5656 0.561068 41.9336 0.6673 42.2813C0.773532 42.6291 0.967061 42.9458 1.23049 43.2029C1.44645 43.4112 1.70357 43.5748 1.98637 43.6839C2.26917 43.793 2.57179 43.8454 2.87599 43.8379H3.32681L12.9744 41.9549C13.4647 41.8977 13.962 41.9656 14.417 42.152C19.2374 44.1664 24.6303 44.484 29.666 43.0502C34.7017 41.6164 39.0646 38.5209 42.0025 34.2975C44.9404 30.074 46.2692 24.9873 45.7598 19.9142C45.2505 14.8411 42.9348 10.0996 39.2122 6.50714L39.0995 6.46335ZM14.1465 24.1325C13.7007 24.1325 13.2649 24.0041 12.8942 23.7635C12.5235 23.5229 12.2346 23.181 12.064 22.7809C11.8934 22.3808 11.8488 21.9406 11.9357 21.5159C12.0227 21.0912 12.2374 20.701 12.5526 20.3948C12.8679 20.0886 13.2695 19.8801 13.7068 19.7956C14.144 19.7111 14.5972 19.7545 15.0091 19.9202C15.421 20.0859 15.7731 20.3666 16.0207 20.7266C16.2684 21.0867 16.4006 21.51 16.4006 21.943C16.4006 22.5237 16.1631 23.0806 15.7404 23.4912C15.3177 23.9018 14.7443 24.1325 14.1465 24.1325ZM23.1629 24.1325C22.7171 24.1325 22.2813 24.0041 21.9106 23.7635C21.5399 23.5229 21.251 23.181 21.0804 22.7809C20.9098 22.3808 20.8652 21.9406 20.9522 21.5159C21.0391 21.0912 21.2538 20.701 21.5691 20.3948C21.8843 20.0886 22.2859 19.8801 22.7232 19.7956C23.1604 19.7111 23.6137 19.7545 24.0256 19.9202C24.4374 20.0859 24.7895 20.3666 25.0372 20.7266C25.2849 21.0867 25.4171 21.51 25.4171 21.943C25.4171 22.5237 25.1796 23.0806 24.7568 23.4912C24.3341 23.9018 23.7608 24.1325 23.1629 24.1325ZM32.1794 24.1325C31.7336 24.1325 31.2977 24.0041 30.9271 23.7635C30.5564 23.5229 30.2675 23.181 30.0968 22.7809C29.9262 22.3808 29.8816 21.9406 29.9686 21.5159C30.0556 21.0912 30.2702 20.701 30.5855 20.3948C30.9007 20.0886 31.3024 19.8801 31.7396 19.7956C32.1769 19.7111 32.6301 19.7545 33.042 19.9202C33.4539 20.0859 33.8059 20.3666 34.0536 20.7266C34.3013 21.0867 34.4335 21.51 34.4335 21.943C34.4335 22.5237 34.196 23.0806 33.7733 23.4912C33.3505 23.9018 32.7772 24.1325 32.1794 24.1325Z" fill="white"/>
</svg>
