<svg xmlns="http://www.w3.org/2000/svg" xmlns:xlink="http://www.w3.org/1999/xlink" width="150" zoomAndPan="magnify" viewBox="0 0 112.5 112.499997" height="150" preserveAspectRatio="xMidYMid meet" version="1.0"><defs><clipPath id="b8d29a41cd"><path d="M 16.101562 0 L 96.351562 0 L 96.351562 112.003906 L 16.101562 112.003906 Z M 16.101562 0 " clip-rule="nonzero"/></clipPath></defs><g clip-path="url(#b8d29a41cd)"><path fill="#ffffff" d="M 86.234375 47.765625 L 39.589844 47.765625 L 39.589844 25.601562 C 39.589844 24.789062 39.671875 23.980469 39.828125 23.183594 C 39.988281 22.386719 40.222656 21.613281 40.535156 20.863281 C 40.84375 20.109375 41.226562 19.398438 41.675781 18.722656 C 42.128906 18.042969 42.640625 17.417969 43.214844 16.84375 C 43.792969 16.269531 44.417969 15.757812 45.09375 15.304688 C 45.769531 14.851562 46.480469 14.472656 47.230469 14.160156 C 47.984375 13.847656 48.757812 13.613281 49.554688 13.457031 C 50.351562 13.296875 51.15625 13.21875 51.96875 13.21875 L 60.496094 13.21875 C 61.308594 13.21875 62.113281 13.296875 62.910156 13.457031 C 63.707031 13.613281 64.480469 13.847656 65.230469 14.160156 C 65.980469 14.472656 66.695312 14.851562 67.371094 15.304688 C 68.046875 15.757812 68.671875 16.269531 69.246094 16.84375 C 69.820312 17.417969 70.332031 18.042969 70.785156 18.722656 C 71.238281 19.398438 71.617188 20.109375 71.929688 20.863281 C 72.238281 21.613281 72.476562 22.386719 72.632812 23.183594 C 72.792969 23.984375 72.871094 24.789062 72.871094 25.601562 L 72.871094 27.265625 C 72.871094 27.695312 72.953125 28.109375 73.117188 28.507812 C 73.28125 28.90625 73.515625 29.253906 73.820312 29.558594 C 74.125 29.863281 74.476562 30.097656 74.875 30.261719 C 75.269531 30.425781 75.683594 30.511719 76.113281 30.511719 L 82.242188 30.511719 C 82.671875 30.511719 83.085938 30.425781 83.484375 30.261719 C 83.878906 30.097656 84.230469 29.863281 84.535156 29.558594 C 84.839844 29.253906 85.074219 28.90625 85.238281 28.507812 C 85.402344 28.109375 85.484375 27.695312 85.484375 27.265625 L 85.484375 21.847656 C 85.484375 21.136719 85.449219 20.425781 85.378906 19.714844 C 85.308594 19.003906 85.207031 18.300781 85.066406 17.601562 C 84.929688 16.902344 84.753906 16.210938 84.546875 15.53125 C 84.339844 14.847656 84.101562 14.175781 83.828125 13.519531 C 83.554688 12.859375 83.253906 12.214844 82.917969 11.589844 C 82.582031 10.960938 82.214844 10.347656 81.820312 9.757812 C 81.421875 9.164062 81 8.589844 80.546875 8.039062 C 80.09375 7.488281 79.617188 6.960938 79.113281 6.457031 C 78.609375 5.953125 78.082031 5.476562 77.53125 5.023438 C 76.980469 4.570312 76.410156 4.148438 75.816406 3.75 C 75.226562 3.355469 74.613281 2.988281 73.988281 2.652344 C 73.359375 2.316406 72.714844 2.011719 72.054688 1.738281 C 71.398438 1.464844 70.726562 1.226562 70.046875 1.019531 C 69.363281 0.8125 68.675781 0.640625 67.976562 0.5 C 67.277344 0.363281 66.574219 0.257812 65.863281 0.1875 C 65.15625 0.117188 64.445312 0.0820312 63.730469 0.0820312 L 48.730469 0.0820312 C 48.019531 0.0820312 47.308594 0.117188 46.597656 0.1875 C 45.890625 0.257812 45.1875 0.363281 44.488281 0.5 C 43.789062 0.640625 43.097656 0.8125 42.417969 1.019531 C 41.734375 1.226562 41.066406 1.464844 40.40625 1.738281 C 39.75 2.011719 39.105469 2.316406 38.476562 2.652344 C 37.847656 2.988281 37.238281 3.355469 36.644531 3.75 C 36.054688 4.148438 35.480469 4.570312 34.929688 5.023438 C 34.378906 5.476562 33.851562 5.953125 33.347656 6.457031 C 32.84375 6.960938 32.367188 7.488281 31.914062 8.039062 C 31.464844 8.589844 31.039062 9.164062 30.644531 9.753906 C 30.25 10.347656 29.882812 10.960938 29.546875 11.585938 C 29.210938 12.214844 28.90625 12.859375 28.632812 13.519531 C 28.359375 14.175781 28.121094 14.847656 27.914062 15.53125 C 27.707031 16.210938 27.535156 16.902344 27.394531 17.601562 C 27.257812 18.300781 27.152344 19.003906 27.082031 19.714844 C 27.011719 20.425781 26.976562 21.136719 26.976562 21.847656 L 26.976562 47.765625 L 26.226562 47.765625 C 25.5625 47.765625 24.902344 47.832031 24.253906 47.960938 C 23.601562 48.089844 22.96875 48.285156 22.351562 48.539062 C 21.738281 48.792969 21.15625 49.105469 20.601562 49.472656 C 20.050781 49.84375 19.539062 50.265625 19.066406 50.734375 C 18.597656 51.203125 18.175781 51.71875 17.808594 52.269531 C 17.4375 52.824219 17.125 53.40625 16.871094 54.023438 C 16.617188 54.636719 16.425781 55.269531 16.296875 55.921875 C 16.167969 56.574219 16.101562 57.234375 16.101562 57.898438 L 16.101562 102.285156 C 16.101562 102.949219 16.167969 103.609375 16.296875 104.261719 C 16.425781 104.914062 16.617188 105.546875 16.871094 106.164062 C 17.125 106.777344 17.4375 107.363281 17.808594 107.914062 C 18.175781 108.46875 18.597656 108.980469 19.066406 109.449219 C 19.539062 109.921875 20.050781 110.339844 20.601562 110.710938 C 21.15625 111.078125 21.738281 111.390625 22.351562 111.644531 C 22.964844 111.902344 23.601562 112.09375 24.25 112.222656 C 24.902344 112.351562 25.5625 112.417969 26.226562 112.417969 L 86.234375 112.417969 C 86.898438 112.417969 87.558594 112.351562 88.210938 112.222656 C 88.863281 112.09375 89.496094 111.902344 90.109375 111.644531 C 90.722656 111.390625 91.308594 111.078125 91.859375 110.710938 C 92.414062 110.339844 92.925781 109.921875 93.394531 109.449219 C 93.867188 108.980469 94.285156 108.46875 94.65625 107.914062 C 95.023438 107.359375 95.335938 106.777344 95.589844 106.164062 C 95.84375 105.546875 96.039062 104.914062 96.167969 104.261719 C 96.296875 103.609375 96.363281 102.949219 96.363281 102.285156 L 96.363281 57.898438 C 96.363281 57.234375 96.296875 56.574219 96.167969 55.921875 C 96.039062 55.269531 95.84375 54.636719 95.589844 54.023438 C 95.335938 53.40625 95.023438 52.824219 94.65625 52.269531 C 94.285156 51.71875 93.867188 51.207031 93.394531 50.734375 C 92.925781 50.265625 92.414062 49.84375 91.859375 49.472656 C 91.308594 49.105469 90.722656 48.792969 90.109375 48.539062 C 89.496094 48.285156 88.863281 48.089844 88.210938 47.960938 C 87.558594 47.832031 86.898438 47.765625 86.234375 47.765625 Z M 59.980469 83.121094 L 59.980469 97.675781 L 52.480469 97.675781 L 52.480469 83.121094 C 52.179688 82.980469 51.890625 82.820312 51.609375 82.648438 C 51.328125 82.472656 51.054688 82.285156 50.796875 82.082031 C 50.535156 81.875 50.285156 81.65625 50.050781 81.425781 C 49.8125 81.195312 49.589844 80.949219 49.382812 80.691406 C 49.175781 80.433594 48.980469 80.164062 48.804688 79.886719 C 48.625 79.605469 48.464844 79.320312 48.316406 79.019531 C 48.171875 78.722656 48.042969 78.417969 47.933594 78.105469 C 47.820312 77.792969 47.726562 77.476562 47.652344 77.15625 C 47.574219 76.832031 47.519531 76.507812 47.480469 76.175781 C 47.441406 75.847656 47.417969 75.519531 47.417969 75.1875 C 47.417969 74.855469 47.433594 74.527344 47.46875 74.195312 C 47.503906 73.867188 47.558594 73.539062 47.628906 73.21875 C 47.703125 72.894531 47.792969 72.574219 47.898438 72.261719 C 48.007812 71.949219 48.132812 71.644531 48.277344 71.34375 C 48.417969 71.042969 48.578125 70.753906 48.753906 70.472656 C 48.929688 70.191406 49.117188 69.921875 49.324219 69.664062 C 49.53125 69.402344 49.75 69.15625 49.984375 68.921875 C 50.214844 68.6875 50.460938 68.464844 50.71875 68.257812 C 50.980469 68.050781 51.246094 67.859375 51.527344 67.679688 C 51.808594 67.503906 52.097656 67.34375 52.394531 67.199219 C 52.691406 67.054688 53 66.929688 53.3125 66.820312 C 53.625 66.710938 53.941406 66.617188 54.265625 66.542969 C 54.585938 66.46875 54.914062 66.414062 55.242188 66.375 C 55.570312 66.339844 55.902344 66.320312 56.230469 66.320312 C 56.5625 66.320312 56.894531 66.339844 57.222656 66.375 C 57.550781 66.414062 57.875 66.46875 58.199219 66.542969 C 58.523438 66.617188 58.839844 66.710938 59.152344 66.820312 C 59.464844 66.929688 59.769531 67.054688 60.066406 67.199219 C 60.367188 67.34375 60.65625 67.503906 60.933594 67.679688 C 61.214844 67.859375 61.484375 68.050781 61.742188 68.257812 C 62 68.464844 62.246094 68.6875 62.480469 68.921875 C 62.714844 69.15625 62.933594 69.402344 63.140625 69.664062 C 63.34375 69.921875 63.535156 70.191406 63.710938 70.472656 C 63.886719 70.753906 64.042969 71.042969 64.1875 71.34375 C 64.328125 71.644531 64.453125 71.949219 64.5625 72.261719 C 64.671875 72.574219 64.761719 72.894531 64.832031 73.21875 C 64.90625 73.539062 64.960938 73.867188 64.996094 74.195312 C 65.03125 74.527344 65.046875 74.855469 65.046875 75.1875 C 65.042969 75.519531 65.023438 75.847656 64.984375 76.175781 C 64.945312 76.507812 64.886719 76.832031 64.8125 77.15625 C 64.734375 77.476562 64.644531 77.792969 64.53125 78.105469 C 64.421875 78.417969 64.292969 78.722656 64.144531 79.019531 C 64 79.320312 63.839844 79.605469 63.660156 79.886719 C 63.480469 80.164062 63.289062 80.433594 63.078125 80.691406 C 62.871094 80.949219 62.648438 81.195312 62.414062 81.425781 C 62.175781 81.65625 61.929688 81.875 61.667969 82.082031 C 61.40625 82.285156 61.136719 82.472656 60.855469 82.648438 C 60.574219 82.820312 60.28125 82.980469 59.980469 83.121094 Z M 59.980469 83.121094 " fill-opacity="1" fill-rule="nonzero"/></g></svg>