<svg width="8" height="34" viewBox="0 0 8 34" fill="none" xmlns="http://www.w3.org/2000/svg">
<path d="M7.75 29.5C7.75 30.4946 7.35491 31.4484 6.65165 32.1517C5.94839 32.8549 4.99456 33.25 4 33.25C3.00544 33.25 2.05161 32.8549 1.34835 32.1517C0.645088 31.4484 0.25 30.4946 0.25 29.5C0.25 28.5054 0.645088 27.5516 1.34835 26.8483C2.05161 26.1451 3.00544 25.75 4 25.75C4.99456 25.75 5.94839 26.1451 6.65165 26.8483C7.35491 27.5516 7.75 28.5054 7.75 29.5ZM7.75 17C7.75 17.9946 7.35491 18.9484 6.65165 19.6517C5.94839 20.3549 4.99456 20.75 4 20.75C3.00544 20.75 2.05161 20.3549 1.34835 19.6517C0.645088 18.9484 0.25 17.9946 0.25 17C0.25 16.0054 0.645088 15.0516 1.34835 14.3483C2.05161 13.6451 3.00544 13.25 4 13.25C4.99456 13.25 5.94839 13.6451 6.65165 14.3483C7.35491 15.0516 7.75 16.0054 7.75 17ZM7.75 4.5C7.75 5.49456 7.35491 6.44839 6.65165 7.15165C5.94839 7.85491 4.99456 8.25 4 8.25C3.00544 8.25 2.05161 7.85491 1.34835 7.15165C0.645088 6.44839 0.25 5.49456 0.25 4.5C0.25 3.50544 0.645088 2.55161 1.34835 1.84835C2.05161 1.14509 3.00544 0.75 4 0.75C4.99456 0.75 5.94839 1.14509 6.65165 1.84835C7.35491 2.55161 7.75 3.50544 7.75 4.5Z" fill="#20a090"/>
</svg>
