<svg width="53" height="66" viewBox="0 0 53 66" fill="none" xmlns="http://www.w3.org/2000/svg">
<path d="M21.5 28.375C28.4036 28.375 34 22.7786 34 15.875C34 8.97144 28.4036 3.375 21.5 3.375C14.5964 3.375 9 8.97144 9 15.875C9 22.7786 14.5964 28.375 21.5 28.375Z" stroke="white" stroke-width="5" stroke-linecap="round" stroke-linejoin="round"/>
<path d="M2.75 59.625V53.375C2.75 50.0598 4.06696 46.8804 6.41116 44.5362C8.75537 42.192 11.9348 40.875 15.25 40.875H18.375" stroke="white" stroke-width="5" stroke-linecap="round" stroke-linejoin="round"/>
<path d="M35.5625 56.5C39.8772 56.5 43.375 53.0022 43.375 48.6875C43.375 44.3728 39.8772 40.875 35.5625 40.875C31.2478 40.875 27.75 44.3728 27.75 48.6875C27.75 53.0022 31.2478 56.5 35.5625 56.5Z" stroke="white" stroke-width="5" stroke-linecap="round" stroke-linejoin="round"/>
<path d="M41.8125 54.9375L49.625 62.75" stroke="white" stroke-width="5" stroke-linecap="round" stroke-linejoin="round"/>
</svg>
