<svg width="35" height="35" viewBox="0 0 35 35" fill="none" xmlns="http://www.w3.org/2000/svg">
<path d="M14.9166 29.2499C18.0968 29.2493 21.1853 28.1847 23.6904 26.2256L31.5665 34.1018L34.1 31.5683L26.2238 23.6922C28.1839 21.1868 29.2492 18.0976 29.2499 14.9166C29.2499 7.01354 22.8196 0.583252 14.9166 0.583252C7.01354 0.583252 0.583252 7.01354 0.583252 14.9166C0.583252 22.8196 7.01354 29.2499 14.9166 29.2499ZM14.9166 4.16659C20.8452 4.16659 25.6666 8.98796 25.6666 14.9166C25.6666 20.8452 20.8452 25.6666 14.9166 25.6666C8.98796 25.6666 4.16659 20.8452 4.16659 14.9166C4.16659 8.98796 8.98796 4.16659 14.9166 4.16659Z" fill="#7C7C7C"/>
</svg>
