<svg xmlns="http://www.w3.org/2000/svg" xmlns:xlink="http://www.w3.org/1999/xlink" width="150" zoomAndPan="magnify" viewBox="0 0 112.5 112.499997" height="150" preserveAspectRatio="xMidYMid meet" version="1.0"><defs><clipPath id="0421899057"><path d="M 17.164062 1.148438 L 100 1.148438 L 100 111.398438 L 17.164062 111.398438 Z M 17.164062 1.148438 " clip-rule="nonzero"/></clipPath></defs><g clip-path="url(#0421899057)"><path fill="#ffffff" d="M 89.332031 40.363281 L 86.117188 40.363281 C 86.480469 34.652344 86.824219 19.308594 77.972656 9.371094 C 73.234375 4.050781 66.785156 1.515625 58.804688 1.515625 C 58.800781 1.515625 58.792969 1.515625 58.789062 1.515625 C 50.460938 1.515625 43.753906 4.144531 38.855469 9.644531 C 29.96875 19.617188 30.246094 35.792969 30.589844 40.363281 L 28.25 40.363281 C 22.289062 40.363281 17.265625 45.179688 17.265625 51.117188 L 17.265625 100.601562 C 17.265625 106.539062 22.289062 111.210938 28.25 111.210938 L 89.332031 111.210938 C 95.292969 111.210938 99.816406 106.539062 99.816406 100.601562 L 99.816406 51.117188 C 99.816406 45.179688 95.292969 40.363281 89.332031 40.363281 Z M 66.355469 94.070312 L 52.171875 94.070312 L 54.429688 78.292969 C 51.027344 76.660156 48.660156 73.121094 48.660156 69.105469 C 48.660156 63.527344 53.195312 58.949219 58.792969 58.949219 C 64.386719 58.949219 68.921875 63.445312 68.921875 69.019531 C 68.921875 72.765625 66.851562 76.207031 63.816406 77.945312 Z M 76.359375 40.363281 L 40.34375 40.363281 C 40.117188 38.078125 39.292969 23.445312 46.144531 15.785156 C 49.160156 12.414062 53.296875 10.65625 58.796875 10.65625 C 58.800781 10.65625 58.800781 10.65625 58.804688 10.65625 C 63.949219 10.65625 67.835938 12.320312 70.6875 15.511719 C 77.507812 23.144531 76.59375 38.078125 76.359375 40.363281 Z M 76.359375 40.363281 " fill-opacity="1" fill-rule="nonzero"/></g></svg>