<svg width="51" height="51" viewBox="0 0 51 51" fill="none" xmlns="http://www.w3.org/2000/svg">
<path d="M21 30L48.5 2.5" stroke="white" stroke-width="3.75" stroke-linecap="round" stroke-linejoin="round"/>
<path d="M48.5 2.5L32.25 47.5C32.1403 47.7394 31.9642 47.9422 31.7426 48.0844C31.521 48.2266 31.2633 48.3022 31 48.3022C30.7367 48.3022 30.479 48.2266 30.2574 48.0844C30.0358 47.9422 29.8597 47.7394 29.75 47.5L21 30L3.49999 21.25C3.26064 21.1403 3.05781 20.9642 2.91561 20.7426C2.77341 20.521 2.69781 20.2633 2.69781 20C2.69781 19.7367 2.77341 19.479 2.91561 19.2574C3.05781 19.0358 3.26064 18.8597 3.49999 18.75L48.5 2.5Z" stroke="white" stroke-width="3.75" stroke-linecap="round" stroke-linejoin="round"/>
</svg>
