<svg width="33" height="33" viewBox="0 0 33 33" fill="none" xmlns="http://www.w3.org/2000/svg">
<path d="M11.125 11.125C10.7686 11.125 10.4268 11.2666 10.1748 11.5186C9.92282 11.7706 9.78125 12.1124 9.78125 12.4688C9.78125 12.8251 9.63968 13.1669 9.38767 13.4189C9.13567 13.6709 8.79388 13.8125 8.4375 13.8125C8.08112 13.8125 7.73933 13.6709 7.48733 13.4189C7.23532 13.1669 7.09375 12.8251 7.09375 12.4688C7.09375 11.3996 7.51847 10.3742 8.27448 9.61823C9.03048 8.86222 10.0558 8.4375 11.125 8.4375C12.1942 8.4375 13.2195 8.86222 13.9755 9.61823C14.7315 10.3742 15.1562 11.3996 15.1562 12.4688C15.1562 12.8251 15.0147 13.1669 14.7627 13.4189C14.5107 13.6709 14.1689 13.8125 13.8125 13.8125C13.4561 13.8125 13.1143 13.6709 12.8623 13.4189C12.6103 13.1669 12.4688 12.8251 12.4688 12.4688C12.4688 12.1124 12.3272 11.7706 12.0752 11.5186C11.8232 11.2666 11.4814 11.125 11.125 11.125ZM21.875 11.125C21.5186 11.125 21.1768 11.2666 20.9248 11.5186C20.6728 11.7706 20.5312 12.1124 20.5312 12.4688C20.5312 12.8251 20.3897 13.1669 20.1377 13.4189C19.8857 13.6709 19.5439 13.8125 19.1875 13.8125C18.8311 13.8125 18.4893 13.6709 18.2373 13.4189C17.9853 13.1669 17.8438 12.8251 17.8438 12.4688C17.8438 11.3996 18.2685 10.3742 19.0245 9.61823C19.7805 8.86222 20.8058 8.4375 21.875 8.4375C22.9442 8.4375 23.9695 8.86222 24.7255 9.61823C25.4815 10.3742 25.9062 11.3996 25.9062 12.4688C25.9062 12.8251 25.7647 13.1669 25.5127 13.4189C25.2607 13.6709 24.9189 13.8125 24.5625 13.8125C24.2061 13.8125 23.8643 13.6709 23.6123 13.4189C23.3603 13.1669 23.2188 12.8251 23.2188 12.4688C23.2188 12.1124 23.0772 11.7706 22.8252 11.5186C22.5732 11.2666 22.2314 11.125 21.875 11.125ZM7.18781 16.5C6.99547 16.5 6.80538 16.5413 6.63038 16.6212C6.45538 16.701 6.29956 16.8174 6.17344 16.9627C6.04732 17.1079 5.95385 17.2785 5.89935 17.463C5.84484 17.6474 5.83057 17.8414 5.8575 18.0319C6.22263 20.5943 7.50005 22.939 9.45513 24.6353C11.4102 26.3315 13.9117 27.2654 16.5 27.2654C19.0883 27.2654 21.5898 26.3315 23.5449 24.6353C25.4999 22.939 26.7774 20.5943 27.1425 18.0319C27.1695 17.8412 27.1551 17.647 27.1005 17.4623C27.0458 17.2777 26.9521 17.1069 26.8257 16.9617C26.6993 16.8164 26.5431 16.7 26.3678 16.6203C26.1925 16.5407 26.0021 16.4996 25.8095 16.5H7.18781ZM16.5 24.5625C14.8322 24.5626 13.2053 24.0458 11.8433 23.0832C10.4813 22.1207 9.45105 20.7597 8.89438 19.1875H24.1056C23.5489 20.7597 22.5187 22.1207 21.1567 23.0832C19.7947 24.0458 18.1678 24.5626 16.5 24.5625V24.5625ZM32.625 16.5C32.625 14.3824 32.2079 12.2856 31.3976 10.3292C30.5872 8.37285 29.3994 6.59525 27.9021 5.0979C26.4048 3.60056 24.6271 2.4128 22.6708 1.60244C20.7144 0.792086 18.6176 0.375 16.5 0.375C14.3824 0.375 12.2856 0.792086 10.3292 1.60244C8.37285 2.4128 6.59525 3.60056 5.0979 5.0979C3.60056 6.59525 2.4128 8.37285 1.60244 10.3292C0.792085 12.2856 0.375 14.3824 0.375 16.5C0.375 20.7766 2.07388 24.8781 5.0979 27.9021C8.12193 30.9261 12.2234 32.625 16.5 32.625C20.7766 32.625 24.8781 30.9261 27.9021 27.9021C30.9261 24.8781 32.625 20.7766 32.625 16.5ZM3.0625 16.5C3.0625 12.9362 4.47823 9.51827 6.99825 6.99825C9.51827 4.47823 12.9362 3.0625 16.5 3.0625C20.0638 3.0625 23.4817 4.47823 26.0017 6.99825C28.5218 9.51827 29.9375 12.9362 29.9375 16.5C29.9375 20.0638 28.5218 23.4817 26.0017 26.0017C23.4817 28.5218 20.0638 29.9375 16.5 29.9375C12.9362 29.9375 9.51827 28.5218 6.99825 26.0017C4.47823 23.4817 3.0625 20.0638 3.0625 16.5Z" fill="#333333"/>
</svg>
