<svg width="32" height="32" viewBox="0 0 32 32" fill="#20a090" xmlns="http://www.w3.org/2000/svg">
<path d="M10.2985 10.1935C8.42074 11.7895 7.73299 14.6997 9.35349 17.0342C10.8763 19.2239 12.7774 21.1244 14.9675 22.6465C17.302 24.267 20.2122 23.5793 21.8082 21.7015L21.8257 21.7102C23.864 22.655 26.0276 23.3016 28.25 23.63V28.25H28.243C14.2885 28.2693 3.73424 17.5943 3.74999 3.757V3.75H8.36999V3.75175C8.69899 5.97425 9.34649 8.13725 10.2897 10.1742L10.2985 10.1918V10.1935ZM28.25 31.75H30C30.4641 31.75 30.9092 31.5656 31.2374 31.2374C31.5656 30.9093 31.75 30.4641 31.75 30V22.1215C31.7504 21.7017 31.5998 21.2957 31.3258 20.9777C31.0517 20.6596 30.6725 20.4507 30.2572 20.389L28.7627 20.1685C26.8722 19.8879 25.0317 19.3375 23.2975 18.534L21.9797 17.9233C21.6097 17.7518 21.1914 17.715 20.7971 17.8192C20.4029 17.9233 20.0573 18.1619 19.8202 18.4937L19.2235 19.3285C18.7002 20.0618 17.701 20.284 16.9642 19.7712C15.117 18.4872 13.5135 16.8842 12.2287 15.0375C11.716 14.299 11.94 13.2998 12.6715 12.7783L13.5062 12.1833C13.8385 11.9461 14.0773 11.6003 14.1815 11.2056C14.2857 10.8109 14.2486 10.3922 14.0767 10.022L13.4642 8.7025C12.6616 6.96815 12.1117 5.12768 11.8315 3.23725L11.6092 1.74275C11.5475 1.3275 11.3386 0.948266 11.0205 0.674236C10.7025 0.400205 10.2966 0.249638 9.87674 0.250001H1.99999C1.53586 0.250001 1.09074 0.434375 0.762551 0.762564C0.434363 1.09075 0.249988 1.53587 0.249988 2V3.75175C0.232488 19.514 12.3425 31.7728 28.2482 31.75H28.25Z" fill="#20a090"/>
</svg>
