<svg xmlns="http://www.w3.org/2000/svg" xmlns:xlink="http://www.w3.org/1999/xlink" width="800" zoomAndPan="magnify" viewBox="0 0 600 525.000007" height="700" preserveAspectRatio="xMidYMid meet" version="1.0"><defs><clipPath id="b212cf8da5"><path d="M 512.207031 298.554688 L 594.921875 298.554688 L 594.921875 386.746094 L 512.207031 386.746094 Z M 512.207031 298.554688 " clip-rule="nonzero"/></clipPath><clipPath id="c9dcc40da7"><path d="M 425.902344 497.445312 L 464 497.445312 L 464 523.3125 L 425.902344 523.3125 Z M 425.902344 497.445312 " clip-rule="nonzero"/></clipPath></defs><path fill="#bf6a4d" d="M 527.164062 468.203125 L 498.933594 468.203125 C 498.933594 468.203125 498.273438 479.953125 504.785156 491.632812 C 511.300781 503.316406 525.398438 501.875 525.398438 501.875 C 525.398438 501.875 539.347656 503.316406 547.082031 491.632812 C 554.820312 479.953125 555.390625 468.203125 555.390625 468.203125 L 527.164062 468.203125 " fill-opacity="1" fill-rule="nonzero"/><path fill="#3f434c" d="M 555.390625 468.203125 C 555.308594 469.871094 542.601562 471.21875 527.007812 471.21875 C 511.417969 471.21875 498.851562 469.871094 498.9375 468.203125 C 499.027344 466.535156 511.734375 465.183594 527.324219 465.183594 C 542.914062 465.183594 555.480469 466.535156 555.390625 468.203125 " fill-opacity="1" fill-rule="nonzero"/><path fill="#737861" d="M 529.234375 468.054688 L 521.90625 467.953125 C 521.917969 467.78125 523.054688 450.113281 523.039062 421.390625 C 523.015625 392.261719 525.429688 374.621094 525.53125 373.882812 L 532.804688 374.523438 C 532.78125 374.699219 530.359375 392.441406 530.382812 421 C 530.402344 449.992188 529.25 467.878906 529.234375 468.054688 " fill-opacity="1" fill-rule="nonzero"/><path fill="#737861" d="M 522.398438 462.179688 C 518.171875 446.527344 511.160156 436.402344 506.019531 430.664062 C 500.453125 424.4375 495.816406 421.878906 495.769531 421.855469 L 499.503906 415.351562 C 500.359375 415.808594 520.582031 426.941406 529.5 459.925781 L 522.398438 462.179688 " fill-opacity="1" fill-rule="nonzero"/><path fill="#737861" d="M 520.945312 449.324219 L 519.511719 438.734375 C 513.210938 412.363281 490.535156 362 490.304688 361.492188 L 497.027344 358.191406 C 497.976562 360.289062 520.304688 409.890625 526.703125 436.863281 L 526.746094 437.03125 L 528.222656 447.96875 L 520.945312 449.324219 " fill-opacity="1" fill-rule="nonzero"/><g clip-path="url(#b212cf8da5)"><path fill="#737861" d="M 560.960938 349.425781 C 556.316406 349.269531 558.867188 345.71875 558.867188 345.71875 C 558.867188 345.71875 564.589844 337.3125 572.03125 341.359375 C 579.464844 345.402344 565.605469 349.582031 560.960938 349.425781 Z M 545.257812 334.515625 C 545.257812 334.515625 543.769531 340.351562 541.277344 341.300781 C 538.78125 342.246094 538.253906 331.28125 542.726562 327.179688 C 547.199219 323.078125 545.257812 334.515625 545.257812 334.515625 Z M 590.433594 335.566406 C 586.351562 335.476562 580.378906 334.65625 579.207031 330.738281 C 577.882812 326.316406 586.894531 324.019531 591.871094 323.101562 C 593.65625 322.769531 594.972656 321.152344 594.925781 319.355469 L 594.371094 298.675781 L 569.09375 302.253906 C 567.21875 302.519531 565.734375 304.082031 565.554688 305.964844 C 565.050781 311.246094 563.441406 321.1875 558.386719 321.851562 C 552.765625 322.585938 554.5 311.398438 555.34375 307.191406 C 555.464844 306.582031 554.824219 306.140625 554.28125 306.464844 L 536.089844 317.332031 C 535.828125 317.484375 535.679688 317.773438 535.714844 318.0625 C 536.019531 320.933594 537.308594 335.816406 530.703125 335.445312 C 525.355469 335.148438 525.421875 329.128906 525.84375 325.914062 C 525.898438 325.515625 525.363281 325.359375 525.164062 325.714844 C 521.441406 332.257812 509.148438 355.085938 513.039062 364.953125 C 517.597656 376.535156 528.210938 383 528.210938 383 C 545.953125 393.453125 570.691406 378.660156 579.65625 372.503906 C 580.910156 371.644531 580.574219 369.746094 579.117188 369.5 C 574.015625 368.640625 565.8125 366.570312 566.203125 362.214844 C 566.644531 357.359375 577.90625 360.171875 583.058594 361.71875 C 584.675781 362.207031 586.464844 361.449219 587.335938 359.925781 C 590.742188 353.933594 592.742188 344.828125 593.683594 339.574219 C 594.0625 337.472656 592.546875 335.613281 590.433594 335.566406 " fill-opacity="1" fill-rule="nonzero"/></g><path fill="#737861" d="M 488.613281 402.757812 C 487.347656 402.46875 486.554688 401.265625 486.65625 399.957031 C 486.820312 397.890625 487.421875 394.492188 489.582031 393.761719 C 492.347656 392.832031 492.664062 403.675781 488.613281 402.757812 Z M 488.179688 420.621094 C 484.773438 421.804688 475.152344 421.453125 477.765625 416.71875 C 480.378906 411.984375 489.519531 415.890625 489.519531 415.890625 C 489.519531 415.890625 491.578125 419.441406 488.179688 420.621094 Z M 465.023438 398.023438 C 464.402344 394.867188 474.898438 399.183594 474.898438 399.183594 C 479.597656 405.863281 465.644531 401.175781 465.023438 398.023438 Z M 461.683594 374.46875 C 461.683594 374.46875 449.992188 404.945312 453.023438 419.390625 C 456.050781 433.835938 472.617188 443.445312 486.148438 434.308594 C 499.683594 425.175781 499.738281 421.734375 499.738281 421.734375 C 499.738281 421.734375 512.15625 415.640625 518.15625 399.183594 C 524.15625 382.722656 461.683594 374.46875 461.683594 374.46875 " fill-opacity="1" fill-rule="nonzero"/><path fill="#737861" d="M 496.484375 361.742188 C 496.484375 361.742188 482.484375 364.03125 474.320312 357.851562 C 466.15625 351.667969 461.890625 341.632812 461.890625 341.632812 L 467.152344 334.414062 C 467.152344 334.414062 477.414062 347.234375 479.859375 339.332031 C 482.304688 331.433594 469.4375 328.515625 469.4375 328.515625 C 469.4375 328.515625 468.753906 320.460938 473.535156 317.515625 C 473.535156 317.515625 479.445312 328.804688 483.457031 325.4375 C 487.476562 322.070312 477.769531 311.472656 477.769531 311.472656 C 477.769531 311.472656 483.871094 302.703125 487.152344 301.945312 C 490.4375 301.1875 496.007812 307.578125 495.433594 309.703125 C 494.859375 311.832031 489.617188 325.347656 492.175781 326.757812 C 494.738281 328.175781 500.851562 313.746094 500.851562 313.746094 C 500.851562 313.746094 505.464844 315.417969 507.503906 319.160156 C 507.503906 319.160156 495.957031 331.289062 497.886719 335.496094 C 499.820312 339.707031 511.621094 324.894531 511.621094 324.894531 C 511.621094 324.894531 514.648438 327.472656 516.476562 332.148438 C 516.476562 332.148438 515.175781 352.601562 496.484375 361.742188 " fill-opacity="1" fill-rule="nonzero"/><path fill="#8c5f53" d="M 105.800781 433.269531 L 67.808594 433.269531 C 67.808594 433.269531 67.75 453.789062 77.339844 474.195312 C 86.925781 494.597656 105.800781 492.078125 105.800781 492.078125 C 105.800781 492.078125 124.675781 494.597656 134.265625 474.195312 C 143.855469 453.789062 143.792969 433.269531 143.792969 433.269531 L 105.800781 433.269531 " fill-opacity="1" fill-rule="nonzero"/><path fill="#3f434c" d="M 143.792969 433.269531 C 143.792969 436.183594 126.78125 438.542969 105.800781 438.542969 C 84.820312 438.542969 67.808594 436.183594 67.808594 433.269531 C 67.808594 430.355469 84.820312 428 105.800781 428 C 126.78125 428 143.792969 430.355469 143.792969 433.269531 " fill-opacity="1" fill-rule="nonzero"/><path fill="#737861" d="M 122.324219 432.1875 C 122.324219 432.1875 139.15625 385.070312 128.945312 366.886719 C 118.738281 348.699219 97.960938 340.984375 100.308594 326.378906 C 102.65625 311.777344 127.554688 292.355469 116.828125 276.714844 C 106.105469 261.074219 78.03125 256.746094 74.464844 243.34375 C 70.902344 229.9375 61.449219 199.90625 31.003906 203.210938 C 0.558594 206.515625 1.34375 233.246094 11.429688 245.917969 C 21.515625 258.59375 45.671875 272.050781 34.257812 280.890625 C 22.84375 289.730469 10.917969 284.21875 14.6875 307.367188 C 18.460938 330.511719 55.269531 345.496094 51.203125 357.292969 C 47.132812 369.089844 34.660156 368.4375 41.125 385.296875 C 47.59375 402.152344 71.378906 434.546875 86.773438 436.542969 C 102.167969 438.539062 122.65625 437.148438 122.324219 432.1875 " fill-opacity="1" fill-rule="nonzero"/><path fill="#3f434c" d="M 101.15625 431.003906 C 100.808594 431.003906 100.5 430.757812 100.429688 430.40625 C 100.222656 429.386719 95.480469 405.265625 99.730469 392.550781 C 102.113281 385.421875 98.917969 381.878906 95.21875 377.78125 C 92.597656 374.875 89.890625 371.867188 88.867188 367.324219 C 86.296875 355.890625 78.390625 327.175781 71.773438 310.648438 C 68.058594 301.367188 65 300.277344 62.300781 299.316406 C 60.078125 298.523438 57.980469 297.777344 56.160156 293.316406 C 54.496094 289.230469 55.964844 285.855469 57.664062 281.945312 C 60.285156 275.910156 63.550781 268.402344 58.472656 253.695312 C 50.140625 229.550781 30.542969 217.511719 30.347656 217.394531 C 29.996094 217.183594 29.882812 216.726562 30.09375 216.375 C 30.304688 216.023438 30.761719 215.910156 31.113281 216.121094 C 31.320312 216.246094 36.242188 219.238281 42.28125 225.320312 C 47.851562 230.925781 55.425781 240.316406 59.878906 253.210938 C 65.140625 268.464844 61.605469 276.597656 59.023438 282.535156 C 57.332031 286.433594 56.105469 289.25 57.539062 292.757812 C 59.105469 296.601562 60.734375 297.179688 62.800781 297.917969 C 65.648438 298.929688 69.1875 300.191406 73.152344 310.09375 C 79.800781 326.699219 87.738281 355.523438 90.316406 366.996094 C 91.25 371.164062 93.828125 374.019531 96.320312 376.785156 C 99.996094 380.859375 103.796875 385.070312 101.136719 393.023438 C 97.011719 405.367188 101.835938 429.871094 101.882812 430.113281 C 101.964844 430.515625 101.703125 430.910156 101.300781 430.988281 C 101.253906 431 101.203125 431.003906 101.15625 431.003906 " fill-opacity="1" fill-rule="nonzero"/><path fill="#3f434c" d="M 74.183594 315.597656 C 74.074219 315.597656 73.960938 315.574219 73.855469 315.523438 C 73.488281 315.34375 73.335938 314.894531 73.515625 314.53125 C 73.964844 313.609375 84.609375 291.988281 90.753906 285.769531 C 97.074219 279.371094 102.757812 280.121094 102.996094 280.15625 C 103.402344 280.214844 103.683594 280.59375 103.625 281 C 103.5625 281.40625 103.1875 281.683594 102.78125 281.628906 C 102.773438 281.625 101.476562 281.457031 99.488281 282.007812 C 97.648438 282.515625 94.824219 283.761719 91.808594 286.8125 C 85.835938 292.863281 74.957031 314.960938 74.851562 315.183594 C 74.71875 315.449219 74.457031 315.597656 74.183594 315.597656 " fill-opacity="1" fill-rule="nonzero"/><path fill="#3f434c" d="M 84.582031 348.554688 C 84.445312 348.554688 84.308594 348.515625 84.183594 348.4375 L 46.125 324.132812 C 45.777344 323.914062 45.679688 323.457031 45.898438 323.109375 C 46.121094 322.765625 46.578125 322.664062 46.925781 322.882812 L 84.980469 347.183594 C 85.328125 347.40625 85.429688 347.867188 85.207031 348.210938 C 85.066406 348.433594 84.824219 348.554688 84.582031 348.554688 " fill-opacity="1" fill-rule="nonzero"/><path fill="#3f434c" d="M 40.054688 251.554688 Z M 61.203125 261.691406 C 60.925781 261.691406 60.660156 261.535156 60.53125 261.265625 C 57.097656 254.042969 44.941406 253.320312 40.945312 253.085938 C 39.882812 253.023438 39.652344 253.003906 39.433594 252.90625 C 39.0625 252.734375 38.898438 252.292969 39.070312 251.921875 C 39.230469 251.574219 39.621094 251.410156 39.976562 251.523438 C 40.117188 251.546875 40.582031 251.574219 41.035156 251.601562 C 45.246094 251.851562 58.0625 252.613281 61.871094 260.628906 C 62.046875 261 61.890625 261.441406 61.519531 261.617188 C 61.417969 261.667969 61.308594 261.691406 61.203125 261.691406 " fill-opacity="1" fill-rule="nonzero"/><path fill="#3f434c" d="M 49.066406 235.097656 C 48.757812 235.097656 48.46875 234.902344 48.363281 234.597656 C 47.101562 230.933594 46.078125 225.53125 48.367188 220.597656 C 49.753906 217.601562 51.707031 216.207031 51.785156 216.152344 C 52.121094 215.914062 52.585938 215.996094 52.820312 216.332031 C 53.058594 216.667969 52.976562 217.128906 52.640625 217.363281 C 52.359375 217.566406 45.75 222.441406 49.765625 234.113281 C 49.898438 234.5 49.695312 234.921875 49.308594 235.058594 C 49.226562 235.085938 49.144531 235.097656 49.066406 235.097656 " fill-opacity="1" fill-rule="nonzero"/><path fill="#3f434c" d="M 101.289062 388.449219 C 101.210938 388.449219 101.128906 388.4375 101.046875 388.410156 C 100.660156 388.277344 100.453125 387.851562 100.585938 387.464844 C 103.953125 377.632812 113.257812 371.800781 113.652344 371.554688 C 114.003906 371.339844 114.457031 371.449219 114.675781 371.796875 C 114.890625 372.148438 114.78125 372.605469 114.433594 372.820312 C 114.339844 372.875 105.183594 378.628906 101.992188 387.945312 C 101.886719 388.253906 101.597656 388.449219 101.289062 388.449219 " fill-opacity="1" fill-rule="nonzero"/><path fill="#3f434c" d="M 98.84375 411.804688 C 98.570312 411.804688 98.308594 411.652344 98.179688 411.394531 C 91.339844 397.785156 69.71875 390.324219 69.503906 390.253906 C 69.113281 390.121094 68.90625 389.695312 69.039062 389.308594 C 69.167969 388.921875 69.589844 388.714844 69.980469 388.84375 C 70.035156 388.863281 75.628906 390.777344 82.011719 394.394531 C 87.933594 397.75 95.777344 403.308594 99.503906 410.722656 C 99.691406 411.089844 99.542969 411.539062 99.175781 411.722656 C 99.070312 411.777344 98.953125 411.804688 98.84375 411.804688 " fill-opacity="1" fill-rule="nonzero"/><path fill="#737861" d="M 106.6875 435.851562 C 106.6875 435.851562 104.128906 340.71875 116.554688 325.730469 C 128.984375 310.738281 135.925781 318.050781 141.410156 325.730469 C 146.890625 333.40625 149.449219 297.335938 173.9375 303.304688 C 198.429688 309.277344 152.007812 363.730469 156.761719 370.328125 C 161.511719 376.921875 177.59375 375.457031 170.648438 390.082031 C 163.703125 404.710938 133.734375 435.851562 133.734375 435.851562 L 106.6875 435.851562 " fill-opacity="1" fill-rule="nonzero"/><path fill="#3f434c" d="M 122.648438 429.585938 C 122.589844 429.585938 122.535156 429.578125 122.480469 429.5625 C 122.078125 429.472656 121.832031 429.074219 121.921875 428.671875 C 122.019531 428.253906 131.726562 386.5 136.542969 365.054688 C 137.949219 358.800781 141.988281 348.179688 153.242188 333.117188 C 159.953125 324.132812 166.15625 317.71875 166.21875 317.65625 C 166.503906 317.359375 166.972656 317.355469 167.269531 317.640625 C 167.5625 317.925781 167.570312 318.394531 167.285156 318.6875 C 167.222656 318.753906 161.078125 325.109375 154.417969 334.019531 C 143.328125 348.867188 139.367188 359.269531 137.992188 365.382812 C 133.175781 386.832031 123.46875 428.589844 123.371094 429.007812 C 123.289062 429.355469 122.984375 429.585938 122.648438 429.585938 " fill-opacity="1" fill-rule="nonzero"/><path fill="#3f434c" d="M 134.769531 376.996094 C 134.691406 376.996094 134.609375 376.984375 134.535156 376.957031 C 134.261719 376.867188 134.066406 376.625 134.03125 376.34375 L 129.675781 340.933594 C 129.625 340.527344 129.914062 340.15625 130.320312 340.105469 C 130.730469 340.054688 131.097656 340.34375 131.148438 340.75 L 135.316406 374.617188 L 155.007812 354.21875 C 155.292969 353.929688 155.761719 353.917969 156.058594 354.203125 C 156.351562 354.488281 156.363281 354.957031 156.074219 355.253906 L 135.304688 376.769531 C 135.160156 376.917969 134.96875 376.996094 134.769531 376.996094 " fill-opacity="1" fill-rule="nonzero"/><path fill="#3f434c" d="M 129.589844 399.574219 C 129.5 399.574219 129.414062 399.558594 129.328125 399.523438 C 129.140625 399.453125 128.988281 399.308594 128.90625 399.121094 L 119.039062 375.898438 C 118.878906 375.523438 119.054688 375.085938 119.433594 374.925781 C 119.808594 374.761719 120.246094 374.941406 120.40625 375.320312 L 129.96875 397.824219 L 158.875 383.988281 C 159.246094 383.808594 159.691406 383.964844 159.867188 384.335938 C 160.042969 384.703125 159.886719 385.148438 159.519531 385.328125 L 129.910156 399.5 C 129.808594 399.550781 129.699219 399.574219 129.589844 399.574219 " fill-opacity="1" fill-rule="nonzero"/><path fill="#3f434c" d="M 428.757812 123.097656 C 428.757812 123.097656 424.769531 128.113281 423.554688 135.480469 C 421.597656 147.316406 426.0625 155.121094 426.0625 155.121094 L 436.683594 154.207031 C 436.683594 154.207031 434.453125 119.550781 428.757812 123.097656 " fill-opacity="1" fill-rule="nonzero"/><path fill="#f4b68c" d="M 431.042969 157.777344 C 431.042969 157.777344 374.003906 150.625 357.976562 142.992188 C 345.289062 136.945312 282.363281 107.800781 279.160156 110.492188 C 268.714844 119.261719 309.714844 150.765625 343.789062 166.175781 C 367.222656 176.777344 415.160156 186.398438 415.160156 186.398438 L 431.042969 157.777344 " fill-opacity="1" fill-rule="nonzero"/><path fill="#da9b1d" d="M 370.617188 147.179688 C 393.328125 153.050781 431.042969 157.777344 431.042969 157.777344 L 415.160156 186.398438 C 415.160156 186.398438 387.796875 184.34375 364.40625 177.152344 C 359.226562 161.351562 367.167969 150.652344 370.617188 147.179688 " fill-opacity="1" fill-rule="nonzero"/><g clip-path="url(#c9dcc40da7)"><path fill="#3f434c" d="M 454.152344 497.71875 C 454.152344 497.71875 449.5 496.621094 446.269531 500.777344 C 443.035156 504.933594 427.972656 512.75 426.480469 514.988281 C 424.988281 517.226562 426.730469 521.773438 434.011719 523.09375 C 441.296875 524.40625 452.476562 519.632812 457.542969 516.191406 C 462.605469 512.75 463.320312 512.828125 463.90625 510.796875 C 464.488281 508.769531 462.144531 501.664062 459.515625 500.0625 C 456.886719 498.464844 454.152344 497.71875 454.152344 497.71875 " fill-opacity="1" fill-rule="nonzero"/></g><path fill="#f4b68c" d="M 446.984375 501.769531 C 446.984375 501.769531 450.941406 502.179688 454.132812 505.367188 C 455.589844 506.824219 462.007812 506.246094 461.140625 499.8125 C 461.011719 498.886719 460.480469 496.617188 460.429688 495.429688 C 460.019531 485.441406 464.558594 484.644531 457.066406 481.800781 C 449.570312 478.960938 445.289062 484.914062 447.46875 490.199219 C 449.640625 495.480469 446.984375 501.769531 446.984375 501.769531 " fill-opacity="1" fill-rule="nonzero"/><path fill="#3f434c" d="M 409.574219 167.667969 L 407 185.574219 C 403.054688 185.117188 397.933594 184.4375 392.222656 183.488281 C 395.582031 177.640625 409.574219 167.667969 409.574219 167.667969 " fill-opacity="1" fill-rule="nonzero"/><path fill="#f4b68c" d="M 401.398438 502.636719 C 405.222656 504.179688 408.863281 498.535156 411.480469 497.527344 C 411.484375 497.394531 411.488281 497.265625 411.492188 497.148438 C 411.648438 494.710938 411.90625 488.570312 411.90625 488.570312 L 397.78125 488.570312 C 397.78125 488.570312 397.167969 494.710938 397.078125 495.296875 C 396.859375 496.652344 396.414062 498.046875 396.390625 498.089844 C 396.390625 498.089844 397.308594 500.980469 401.398438 502.636719 " fill-opacity="1" fill-rule="nonzero"/><path fill="#3f434c" d="M 413.046875 508.355469 C 412.628906 506.128906 411.457031 500.195312 411.480469 497.527344 C 408.863281 498.535156 406.777344 501.890625 401.714844 500.914062 C 399.199219 500.429688 398.027344 498.703125 397.488281 497.3125 C 397.1875 496.539062 396.210938 496.300781 395.5625 496.820312 C 392.839844 499.007812 387.132812 502.714844 384.25 504.261719 C 380.433594 506.308594 372.980469 508.644531 371.808594 511.472656 C 370.636719 514.296875 370.761719 515.859375 372.835938 516.539062 C 374.585938 517.117188 401.171875 515.953125 409.402344 515.578125 C 410.871094 515.511719 412.1875 514.421875 412.550781 512.972656 C 412.933594 511.453125 413.273438 509.574219 413.046875 508.355469 " fill-opacity="1" fill-rule="nonzero"/><path fill="#da9b1d" d="M 466.964844 240.265625 C 465.761719 230.09375 466.058594 213.796875 466.6875 210.84375 C 470.40625 193.394531 476.433594 180.472656 467.925781 170.394531 C 460.832031 161.992188 449.464844 159.707031 440.714844 157.972656 C 434.066406 156.652344 423.796875 158.28125 417.902344 161.628906 C 393.339844 175.570312 404.363281 192.828125 399.636719 223.035156 C 399.347656 224.886719 399 237.332031 398.746094 239.078125 C 403.234375 242.882812 404.890625 243.96875 427.359375 247.148438 C 441.914062 249.207031 467.105469 241.429688 466.964844 240.265625 " fill-opacity="1" fill-rule="nonzero"/><path fill="#3f434c" d="M 453.054688 182.863281 C 453.054688 182.863281 452.980469 220.808594 454.363281 229.105469 L 453.328125 232.5625 C 453.328125 232.5625 448.34375 228.875 447.609375 226.453125 C 446.878906 224.035156 453.054688 182.863281 453.054688 182.863281 " fill-opacity="1" fill-rule="nonzero"/><path fill="#f4b68c" d="M 444.074219 143.0625 C 444.074219 143.0625 447.371094 159.761719 446.445312 160.976562 C 445.578125 162.113281 434.4375 163.703125 434.621094 161.625 C 434.972656 157.511719 435.039062 147.148438 435.039062 147.148438 L 444.074219 143.0625 " fill-opacity="1" fill-rule="nonzero"/><path fill="#f4b68c" d="M 441.898438 123.625 C 446.324219 124.984375 449.207031 129.234375 448.84375 133.847656 C 448.304688 140.707031 447.347656 144.234375 443.761719 147.234375 C 440.015625 150.359375 432.976562 152.453125 429.128906 150.929688 C 426.332031 149.820312 423.339844 146.488281 423.933594 141.910156 C 424.328125 138.867188 425.152344 137.101562 425.386719 135.820312 C 425.972656 132.613281 427.277344 121.089844 433.445312 121.835938 C 436.078125 122.160156 439.15625 122.785156 441.898438 123.625 " fill-opacity="1" fill-rule="nonzero"/><path fill="#3f434c" d="M 437.316406 137.722656 C 437.378906 137.722656 437.449219 137.699219 437.503906 137.652344 C 437.632812 137.550781 437.648438 137.363281 437.542969 137.234375 C 437.507812 137.191406 436.648438 136.160156 435.453125 136.011719 C 434.253906 135.859375 433.734375 136.300781 433.679688 136.347656 C 433.558594 136.460938 433.550781 136.648438 433.660156 136.769531 C 433.773438 136.890625 433.960938 136.898438 434.082031 136.785156 C 434.082031 136.785156 434.460938 136.480469 435.378906 136.597656 C 436.335938 136.722656 437.078125 137.605469 437.085938 137.613281 C 437.144531 137.683594 437.230469 137.722656 437.316406 137.722656 " fill-opacity="1" fill-rule="nonzero"/><path fill="#3f434c" d="M 428.59375 135.914062 C 428.667969 135.914062 428.738281 135.886719 428.792969 135.835938 C 428.917969 135.726562 428.921875 135.539062 428.816406 135.417969 C 428.402344 134.960938 427.355469 134.296875 426.359375 135.007812 C 426.226562 135.105469 426.195312 135.292969 426.292969 135.425781 C 426.386719 135.558594 426.570312 135.585938 426.703125 135.492188 C 427.519531 134.90625 428.339844 135.777344 428.375 135.816406 C 428.433594 135.882812 428.511719 135.914062 428.59375 135.914062 " fill-opacity="1" fill-rule="nonzero"/><path fill="#d68472" d="M 431.042969 136.535156 C 431.046875 136.296875 430.816406 136.1875 430.664062 136.359375 C 430.226562 136.828125 429.433594 137.566406 428.296875 138.140625 C 426.613281 138.984375 426.484375 140.21875 428.476562 140.34375 C 430.46875 140.46875 430.664062 140.316406 430.882812 139.101562 C 431 138.457031 431.035156 137.269531 431.042969 136.535156 " fill-opacity="1" fill-rule="nonzero"/><path fill="#3f434c" d="M 433.925781 135.289062 C 433.972656 135.289062 434.015625 135.277344 434.054688 135.257812 C 434.082031 135.246094 436.511719 134.082031 438.300781 134.59375 C 438.457031 134.632812 438.621094 134.546875 438.667969 134.386719 C 438.710938 134.226562 438.621094 134.066406 438.464844 134.015625 C 436.453125 133.449219 433.90625 134.671875 433.796875 134.726562 C 433.648438 134.796875 433.585938 134.972656 433.660156 135.121094 C 433.710938 135.226562 433.816406 135.289062 433.925781 135.289062 " fill-opacity="1" fill-rule="nonzero"/><path fill="#3f434c" d="M 428.59375 134.09375 C 428.722656 134.09375 428.84375 134.007812 428.878906 133.878906 C 428.925781 133.722656 428.835938 133.554688 428.675781 133.511719 C 428.398438 133.433594 428.105469 133.285156 427.796875 133.128906 C 427.257812 132.855469 426.699219 132.574219 426.066406 132.570312 L 426.0625 132.570312 C 425.898438 132.570312 425.765625 132.699219 425.765625 132.859375 C 425.765625 133.027344 425.898438 133.160156 426.058594 133.164062 C 426.554688 133.167969 427.050781 133.417969 427.53125 133.660156 C 427.851562 133.820312 428.179688 133.988281 428.511719 134.082031 C 428.539062 134.09375 428.566406 134.09375 428.59375 134.09375 " fill-opacity="1" fill-rule="nonzero"/><path fill="#d68472" d="M 434.835938 151.488281 C 434.855469 151.488281 434.878906 151.488281 434.898438 151.484375 C 435.027344 151.457031 437.996094 150.808594 439.253906 150.199219 C 439.402344 150.128906 439.464844 149.953125 439.394531 149.804688 C 439.324219 149.65625 439.144531 149.597656 438.996094 149.667969 C 437.804688 150.242188 434.804688 150.894531 434.773438 150.902344 C 434.613281 150.9375 434.511719 151.09375 434.546875 151.253906 C 434.578125 151.394531 434.699219 151.488281 434.835938 151.488281 " fill-opacity="1" fill-rule="nonzero"/><path fill="#f4b68c" d="M 445.886719 138.476562 C 446.253906 137.632812 446.867188 136.960938 447.625 136.667969 C 448.445312 136.351562 449.464844 136.421875 450.0625 138.203125 C 451.179688 141.527344 446.699219 146.671875 445.355469 144.175781 C 444.414062 142.429688 445.285156 139.863281 445.886719 138.476562 " fill-opacity="1" fill-rule="nonzero"/><path fill="#d68472" d="M 446.472656 143.648438 C 446.503906 143.648438 446.535156 143.644531 446.566406 143.632812 C 446.71875 143.582031 446.808594 143.417969 446.757812 143.261719 C 446.671875 142.980469 446.566406 142.34375 446.808594 142.140625 C 446.941406 142.027344 447.183594 142.042969 447.441406 142.0625 C 447.804688 142.085938 448.261719 142.121094 448.519531 141.707031 C 448.824219 141.214844 449.238281 140.109375 449.136719 139.082031 C 449.03125 137.992188 448.246094 137.75 448.214844 137.738281 C 448.058594 137.691406 447.890625 137.78125 447.847656 137.9375 C 447.800781 138.09375 447.886719 138.257812 448.039062 138.308594 C 448.066406 138.316406 448.480469 138.46875 448.546875 139.144531 C 448.632812 140.015625 448.265625 140.988281 448.011719 141.394531 C 447.953125 141.492188 447.796875 141.492188 447.484375 141.472656 C 447.152344 141.445312 446.742188 141.414062 446.425781 141.6875 C 445.816406 142.203125 446.152344 143.316406 446.191406 143.441406 C 446.234375 143.566406 446.351562 143.648438 446.472656 143.648438 " fill-opacity="1" fill-rule="nonzero"/><path fill="#fcf8eb" d="M 426.554688 142.984375 L 430.96875 143.714844 C 430.96875 143.714844 430.023438 141.574219 428.1875 141.703125 C 426.351562 141.835938 426.554688 142.984375 426.554688 142.984375 " fill-opacity="1" fill-rule="nonzero"/><path fill="#8c5f53" d="M 483.9375 336.828125 C 485.140625 315.761719 482.492188 299.128906 479.644531 286.40625 C 477.261719 275.734375 469.632812 255.484375 466.054688 246.242188 C 463.917969 247.253906 461.195312 248.355469 457.933594 249.308594 C 449.09375 251.882812 432.527344 253.207031 417.769531 250.25 C 402.890625 247.273438 400.132812 245.148438 398.460938 244.078125 C 394.140625 253.511719 385.199219 284.328125 381.824219 319.050781 C 380.964844 327.902344 375.617188 351.632812 375.515625 386.582031 C 375.433594 415.753906 383.871094 439.199219 384.792969 460.480469 C 385.269531 471.40625 390 482.167969 392.414062 487.007812 C 393.234375 488.640625 394.898438 489.667969 396.722656 489.667969 L 415.273438 489.667969 C 417.503906 489.667969 419.332031 487.902344 419.402344 485.671875 C 419.507812 482.324219 419.804688 476.996094 420.601562 470.175781 C 421.527344 462.226562 422.90625 454.105469 423.496094 444.003906 C 423.882812 437.355469 423.566406 429.140625 423.851562 422.046875 C 424.257812 411.96875 422.523438 399.546875 422.804688 389.5 C 423.585938 361.757812 426.140625 338.3125 427.414062 326.542969 C 427.414062 326.542969 436.328125 435.566406 436.855469 472.003906 C 436.894531 474.527344 436.699219 479.707031 436.507812 484.054688 C 436.335938 488.039062 439.441406 491.410156 443.429688 491.558594 C 451.085938 491.847656 462.285156 492.125 463.992188 491.398438 C 466.226562 490.449219 482.757812 357.550781 483.9375 336.828125 " fill-opacity="1" fill-rule="nonzero"/><path fill="#d68472" d="M 442.207031 148.652344 C 442.257812 148.652344 442.304688 148.644531 442.347656 148.617188 C 442.425781 148.578125 444.265625 147.605469 445.042969 146.441406 C 445.136719 146.304688 445.101562 146.121094 444.964844 146.027344 C 444.828125 145.9375 444.644531 145.972656 444.550781 146.113281 C 443.855469 147.148438 442.089844 148.085938 442.070312 148.09375 C 441.925781 148.171875 441.871094 148.351562 441.945312 148.496094 C 442 148.597656 442.101562 148.652344 442.207031 148.652344 " fill-opacity="1" fill-rule="nonzero"/><path fill="#3f434c" d="M 457.933594 249.308594 C 461.195312 248.355469 463.917969 247.253906 466.054688 246.242188 C 464.902344 243.261719 464.167969 241.425781 464.167969 241.425781 C 464.167969 241.425781 452.695312 246.601562 426.148438 244.941406 C 414.019531 244.183594 405.355469 242.199219 398.746094 239.078125 C 398.746094 239.078125 398.042969 241.175781 398.042969 245.027344 C 399.710938 246.097656 402.890625 247.273438 417.769531 250.25 C 432.527344 253.207031 449.09375 251.882812 457.933594 249.308594 " fill-opacity="1" fill-rule="nonzero"/><path fill="#db9c1d" d="M 424.664062 244.941406 C 423.449219 244.941406 422.195312 245.132812 421.148438 245.695312 C 419.949219 246.339844 419.355469 247.292969 419.511719 248.308594 C 419.671875 249.386719 420.765625 250.722656 423.335938 251.222656 C 428.667969 252.261719 430.902344 251.984375 431.878906 250.152344 C 432.308594 249.339844 432.742188 248.191406 432.339844 247.328125 C 431.917969 246.433594 430.652344 246.003906 429.664062 245.796875 L 429.527344 245.761719 C 429.492188 245.75 427.160156 244.941406 424.664062 244.941406 Z M 428.179688 253.902344 C 426.574219 253.902344 424.785156 253.605469 422.941406 253.246094 C 419.910156 252.65625 417.816406 250.878906 417.472656 248.617188 C 417.1875 246.746094 418.222656 244.929688 420.167969 243.882812 C 424 241.820312 429.429688 243.550781 430.144531 243.792969 C 432.214844 244.234375 433.582031 245.128906 434.203125 246.453125 C 434.808594 247.746094 434.632812 249.363281 433.695312 251.121094 C 432.570312 253.238281 430.582031 253.902344 428.179688 253.902344 " fill-opacity="1" fill-rule="nonzero"/><path fill="#8c5f53" d="M 442.703125 251.714844 L 442.402344 245.136719 C 442.402344 245.136719 444.558594 244.367188 446.695312 244.863281 L 447.058594 251.332031 C 447.058594 251.332031 445.917969 252.664062 442.703125 251.714844 " fill-opacity="1" fill-rule="nonzero"/><path fill="#3f434c" d="M 428.1875 191.65625 C 428.1875 191.65625 425.730469 207.613281 427.328125 225.605469 C 429.027344 244.695312 438.125 255.855469 444.730469 260.859375 C 451.339844 265.867188 461.746094 265.523438 466.054688 259.957031 C 466.054688 259.957031 454.207031 252.550781 446.089844 239.078125 C 437.96875 225.605469 428.1875 191.65625 428.1875 191.65625 " fill-opacity="1" fill-rule="nonzero"/><path fill="#f4b68c" d="M 453.328125 229.160156 C 453.328125 229.160156 450.242188 183.554688 455.054688 173.449219 C 458.5 166.214844 470.375 167.6875 472.792969 179.210938 C 474.441406 187.050781 477.714844 246.492188 468.648438 257.335938 C 458.628906 269.320312 446.605469 261.136719 438.378906 247.230469 C 427.53125 228.886719 427.503906 201.03125 428.1875 191.65625 C 428.296875 190.167969 433.878906 189.410156 433.878906 189.410156 C 444.730469 210.152344 453.328125 229.160156 453.328125 229.160156 " fill-opacity="1" fill-rule="nonzero"/><path fill="#8c5f53" d="M 405.722656 247.964844 L 407.683594 242.445312 C 407.769531 242.199219 408.019531 242.046875 408.277344 242.089844 C 408.8125 242.179688 409.71875 242.359375 410.429688 242.652344 C 410.699219 242.761719 410.835938 243.0625 410.738281 243.339844 L 408.683594 249.039062 C 408.683594 249.039062 406.726562 249.066406 405.722656 247.964844 " fill-opacity="1" fill-rule="nonzero"/><path fill="#3f434c" d="M 434.402344 136.367188 C 434.402344 136.367188 433.714844 137.285156 434.296875 137.914062 C 434.882812 138.542969 436.042969 138.171875 436.113281 137.328125 C 436.183594 136.492188 435.957031 136.035156 434.402344 136.367188 " fill-opacity="1" fill-rule="nonzero"/><path fill="#3f434c" d="M 426.804688 135.203125 C 426.804688 135.203125 426.25 136.121094 426.71875 136.746094 C 427.1875 137.375 428.121094 137.003906 428.175781 136.164062 C 428.234375 135.324219 428.050781 134.867188 426.804688 135.203125 " fill-opacity="1" fill-rule="nonzero"/><path fill="#f4b68c" d="M 435.519531 191.554688 C 435.519531 191.554688 438.082031 182.761719 436.925781 181.9375 C 435.765625 181.117188 434.957031 181.8125 434.957031 181.8125 C 434.957031 181.8125 431.605469 176.347656 430.382812 177.257812 C 429.160156 178.160156 429.550781 179.011719 428.34375 179.15625 C 427.136719 179.304688 427.6875 181.234375 426.804688 181.605469 C 425.914062 181.980469 424.820312 182.3125 424.867188 183.085938 C 424.914062 183.863281 426.109375 192.160156 427.941406 193.683594 C 429.769531 195.210938 433.394531 195.222656 435.519531 191.554688 " fill-opacity="1" fill-rule="nonzero"/><path fill="#3f434c" d="M 431.816406 128.136719 C 431.816406 128.136719 435.488281 132.78125 437.476562 134.578125 C 439.460938 136.375 440.050781 140.820312 440.609375 143.714844 C 441.171875 146.609375 440.609375 155.777344 440.609375 155.777344 C 440.609375 155.777344 452.9375 154.324219 455.273438 150.910156 C 458.871094 145.636719 458.246094 130.34375 456.003906 124.882812 C 452.507812 116.355469 444.3125 118.6875 444.3125 118.6875 C 444.3125 118.6875 443.335938 116.355469 436.683594 117.132812 C 430.03125 117.910156 427.5625 123.757812 426.40625 128.167969 C 425.855469 130.242188 431.816406 128.136719 431.816406 128.136719 " fill-opacity="1" fill-rule="nonzero"/><path fill="#f4b68c" d="M 284.414062 111.289062 C 284.414062 111.289062 271.859375 102.296875 269.210938 101.203125 C 266.558594 100.109375 263.449219 96.824219 262.816406 97.574219 C 262.183594 98.324219 267.539062 102.929688 267.367188 103.621094 C 267.191406 104.3125 264.703125 108.863281 266.3125 110.90625 C 268.441406 113.613281 271.167969 112.953125 271.167969 112.953125 C 271.167969 112.953125 273.980469 116.640625 279.117188 117.332031 C 282.464844 117.785156 287.058594 112.734375 284.414062 111.289062 " fill-opacity="1" fill-rule="nonzero"/><path fill="#3f434c" d="M 456.4375 217.699219 C 454.84375 217.257812 453.625 216.816406 452.683594 216.394531 C 452.625 214.851562 452.570312 213.214844 452.519531 211.511719 C 455.414062 212.15625 466.605469 214.578125 470.203125 214.53125 C 472.164062 214.5 473.683594 214.421875 474.742188 214.347656 C 474.746094 215.386719 474.742188 216.429688 474.734375 217.472656 C 472.195312 217.929688 462.722656 219.429688 456.4375 217.699219 " fill-opacity="1" fill-rule="nonzero"/><path fill="#da9b1d" d="M 452.613281 214.472656 C 452.125 200.210938 452.027344 179.808594 455.054688 173.449219 C 458.5 166.214844 471.125 167.082031 473.542969 178.605469 C 474.347656 182.441406 475.839844 198.703125 475.789062 215.507812 C 471.671875 216.46875 460.277344 218.753906 452.613281 214.472656 " fill-opacity="1" fill-rule="nonzero"/><path fill="#3f434c" d="M 457.070312 243.628906 C 457.117188 243.628906 457.167969 243.621094 457.214844 243.613281 C 457.617188 243.53125 457.878906 243.140625 457.796875 242.738281 C 457.691406 242.195312 455.132812 229.390625 452.503906 223.613281 C 452.335938 223.238281 451.894531 223.074219 451.523438 223.242188 C 451.148438 223.414062 450.984375 223.855469 451.15625 224.226562 C 453.707031 229.851562 456.316406 242.898438 456.34375 243.027344 C 456.410156 243.382812 456.722656 243.628906 457.070312 243.628906 " fill-opacity="1" fill-rule="nonzero"/><path fill="#a5675d" d="M 453.898438 369.257812 L 458.3125 369.855469 L 456.980469 367.773438 L 458.164062 364.507812 L 473.90625 370.300781 C 473.90625 370.300781 469.601562 364.804688 471.679688 365.398438 C 472.765625 365.707031 476.847656 368.375 480.492188 370.847656 C 480.015625 375.011719 479.507812 379.40625 478.972656 383.941406 L 452.519531 372.777344 L 453.898438 369.257812 " fill-opacity="1" fill-rule="nonzero"/><path fill="#a5675d" d="M 444.300781 311.667969 L 446.363281 317.195312 L 446.511719 311.863281 L 450.4375 311.871094 L 456.511719 341.605469 L 453.832031 341.382812 L 452.316406 337.257812 L 451.621094 342.117188 L 446.597656 341.535156 L 440.917969 321.167969 L 444.121094 327.601562 L 440.316406 311.84375 L 444.300781 311.667969 " fill-opacity="1" fill-rule="nonzero"/><path fill="#a5675d" d="M 422.875 387.214844 L 403.929688 353.265625 L 407.050781 351.484375 L 413.136719 360.988281 L 409.871094 351.183594 L 415.367188 348.957031 L 423.804688 367.472656 C 423.417969 373.695312 423.09375 380.3125 422.875 387.214844 " fill-opacity="1" fill-rule="nonzero"/><path fill="#a5675d" d="M 390.285156 297.699219 L 392.949219 291.160156 L 388.195312 296.957031 L 385.136719 294.617188 C 385.738281 291.152344 386.367188 287.785156 387.027344 284.535156 L 390.285156 277.34375 L 388.792969 283.585938 L 395.472656 269.171875 L 401.417969 270.957031 L 399.789062 276.078125 L 404.019531 273.035156 L 408.246094 276.078125 L 399.789062 293.09375 L 395.472656 300.078125 L 390.285156 297.699219 " fill-opacity="1" fill-rule="nonzero"/><path fill="#a5675d" d="M 456.511719 283.140625 L 460.515625 277.046875 L 468.085938 282.695312 L 462.296875 276.078125 L 466.054688 271.550781 L 479.1875 284.484375 C 479.351562 285.152344 479.511719 285.796875 479.644531 286.40625 C 480.582031 290.589844 481.496094 295.199219 482.257812 300.25 L 456.511719 283.140625 " fill-opacity="1" fill-rule="nonzero"/><path fill="#a5675d" d="M 406.066406 291.164062 L 411.207031 280.515625 L 419.484375 283.289062 L 413.882812 294.382812 L 406.066406 291.164062 " fill-opacity="1" fill-rule="nonzero"/><path fill="#a5675d" d="M 392.890625 338.261719 L 389.128906 359.257812 L 376.734375 358.550781 C 377.5 349.496094 378.511719 341.730469 379.441406 335.375 L 392.890625 338.261719 " fill-opacity="1" fill-rule="nonzero"/><path fill="#a5675d" d="M 413.488281 411.847656 L 414.625 413.632812 L 413.488281 414.625 L 409.820312 409.871094 L 412.097656 415.417969 L 409.328125 416.507812 L 398.734375 402.140625 L 405.664062 398.183594 L 413.488281 411.847656 " fill-opacity="1" fill-rule="nonzero"/><path fill="#a5675d" d="M 391.902344 415.613281 L 380.835938 432.222656 C 379.792969 426.609375 378.710938 420.796875 377.792969 414.734375 L 381.207031 405.511719 L 384.875 407.34375 L 383.585938 413.734375 L 386.058594 408.878906 L 391.902344 415.613281 " fill-opacity="1" fill-rule="nonzero"/><path fill="#a5675d" d="M 411.011719 441.167969 L 415.539062 449.984375 L 413.1875 440.671875 L 416.0625 442.359375 L 422.585938 454.425781 C 422.273438 457.210938 421.929688 459.867188 421.585938 462.449219 C 421.519531 462.945312 405.761719 442.652344 405.761719 442.652344 L 411.011719 441.167969 " fill-opacity="1" fill-rule="nonzero"/><path fill="#a5675d" d="M 454.160156 446.566406 L 451.308594 440.671875 L 450.269531 448.050781 L 448.414062 444.484375 L 446.898438 448.050781 L 446.257812 419.328125 L 455.316406 421.011719 L 454.160156 446.566406 " fill-opacity="1" fill-rule="nonzero"/><path fill="#3f434c" d="M 363.386719 174.105469 C 363.472656 174.105469 363.5625 174.089844 363.648438 174.058594 C 364.03125 173.914062 364.222656 173.484375 364.078125 173.097656 C 364.070312 173.066406 362.800781 169.367188 364.835938 159.996094 C 366.875 150.605469 370.980469 147.824219 371.023438 147.796875 C 371.367188 147.574219 371.464844 147.113281 371.242188 146.773438 C 371.015625 146.425781 370.554688 146.332031 370.210938 146.554688 C 370.023438 146.679688 365.554688 149.703125 363.386719 159.679688 C 361.234375 169.578125 362.632812 173.464844 362.691406 173.625 C 362.804688 173.921875 363.085938 174.105469 363.386719 174.105469 " fill-opacity="1" fill-rule="nonzero"/><path fill="#3f434c" d="M 175.421875 51.066406 C 177.386719 79.230469 201.804688 102.0625 229.960938 102.0625 C 258.113281 102.0625 279.34375 79.230469 277.378906 51.066406 C 275.410156 22.898438 250.996094 0.0664062 222.839844 0.0664062 C 194.6875 0.0664062 173.457031 22.898438 175.421875 51.066406 " fill-opacity="1" fill-rule="nonzero"/><path fill="#fcf8eb" d="M 186.007812 51.066406 C 187.566406 73.382812 206.914062 91.472656 229.21875 91.472656 C 251.523438 91.472656 268.34375 73.382812 266.789062 51.066406 C 265.230469 28.753906 245.882812 10.664062 223.578125 10.664062 C 201.273438 10.664062 184.453125 28.753906 186.007812 51.066406 " fill-opacity="1" fill-rule="nonzero"/><path fill="#3f434c" d="M 248.105469 57.054688 C 248.441406 57.054688 248.746094 56.824219 248.828125 56.484375 C 248.925781 56.085938 248.679688 55.683594 248.28125 55.589844 L 227.027344 50.457031 L 220.527344 19.347656 C 220.441406 18.945312 220.050781 18.6875 219.648438 18.773438 C 219.246094 18.855469 218.988281 19.253906 219.074219 19.652344 L 225.769531 51.679688 L 247.933594 57.03125 C 247.992188 57.046875 248.050781 57.054688 248.105469 57.054688 " fill-opacity="1" fill-rule="nonzero"/><path fill="#3f434c" d="M 224.113281 19.101562 C 224.132812 19.101562 224.148438 19.101562 224.167969 19.097656 C 224.578125 19.070312 224.886719 18.714844 224.855469 18.308594 L 224.554688 13.988281 C 224.527344 13.582031 224.171875 13.277344 223.761719 13.300781 C 223.355469 13.328125 223.046875 13.683594 223.074219 14.09375 L 223.375 18.410156 C 223.402344 18.800781 223.730469 19.101562 224.113281 19.101562 " fill-opacity="1" fill-rule="nonzero"/><path fill="#3f434c" d="M 247.902344 28.679688 C 248.101562 28.679688 248.300781 28.601562 248.449219 28.441406 L 251.285156 25.394531 C 251.5625 25.089844 251.546875 24.621094 251.246094 24.34375 C 250.945312 24.066406 250.476562 24.082031 250.195312 24.378906 L 247.359375 27.429688 C 247.082031 27.734375 247.097656 28.203125 247.398438 28.484375 C 247.539062 28.617188 247.722656 28.679688 247.902344 28.679688 " fill-opacity="1" fill-rule="nonzero"/><path fill="#3f434c" d="M 259.09375 51.8125 L 263.410156 51.8125 C 263.820312 51.8125 264.152344 51.476562 264.152344 51.066406 C 264.152344 50.65625 263.820312 50.324219 263.410156 50.324219 L 259.09375 50.324219 C 258.683594 50.324219 258.351562 50.65625 258.351562 51.066406 C 258.351562 51.476562 258.683594 51.8125 259.09375 51.8125 " fill-opacity="1" fill-rule="nonzero"/><path fill="#3f434c" d="M 254.394531 77.988281 C 254.59375 77.988281 254.792969 77.910156 254.9375 77.753906 C 255.21875 77.453125 255.203125 76.984375 254.902344 76.703125 L 251.640625 73.652344 C 251.339844 73.371094 250.871094 73.386719 250.589844 73.6875 C 250.308594 73.988281 250.324219 74.457031 250.625 74.734375 L 253.890625 77.789062 C 254.03125 77.921875 254.214844 77.988281 254.394531 77.988281 " fill-opacity="1" fill-rule="nonzero"/><path fill="#3f434c" d="M 228.984375 88.832031 C 229 88.832031 229.015625 88.832031 229.035156 88.832031 C 229.445312 88.804688 229.753906 88.449219 229.722656 88.039062 L 229.421875 83.722656 C 229.394531 83.3125 229.042969 83.007812 228.628906 83.035156 C 228.222656 83.0625 227.914062 83.417969 227.941406 83.828125 L 228.242188 88.140625 C 228.269531 88.53125 228.597656 88.832031 228.984375 88.832031 " fill-opacity="1" fill-rule="nonzero"/><path fill="#3f434c" d="M 202.058594 77.988281 C 202.253906 77.988281 202.453125 77.910156 202.601562 77.753906 L 205.4375 74.699219 C 205.71875 74.398438 205.699219 73.929688 205.402344 73.652344 C 205.101562 73.371094 204.628906 73.390625 204.351562 73.6875 L 201.511719 76.742188 C 201.234375 77.039062 201.25 77.511719 201.550781 77.789062 C 201.695312 77.921875 201.875 77.988281 202.058594 77.988281 " fill-opacity="1" fill-rule="nonzero"/><path fill="#3f434c" d="M 189.390625 51.8125 L 193.703125 51.8125 C 194.113281 51.8125 194.445312 51.476562 194.445312 51.066406 C 194.445312 50.65625 194.113281 50.324219 193.703125 50.324219 L 189.390625 50.324219 C 188.980469 50.324219 188.648438 50.65625 188.648438 51.066406 C 188.648438 51.476562 188.980469 51.8125 189.390625 51.8125 " fill-opacity="1" fill-rule="nonzero"/><path fill="#3f434c" d="M 201.664062 28.679688 C 201.863281 28.679688 202.0625 28.601562 202.207031 28.445312 C 202.488281 28.148438 202.472656 27.675781 202.171875 27.394531 L 198.910156 24.34375 C 198.609375 24.066406 198.140625 24.082031 197.859375 24.378906 C 197.578125 24.679688 197.59375 25.148438 197.894531 25.429688 L 201.160156 28.480469 C 201.300781 28.617188 201.484375 28.679688 201.664062 28.679688 " fill-opacity="1" fill-rule="nonzero"/><path fill="#da9b1d" d="M 428.132812 107.714844 L 426.574219 100.046875 L 418.304688 94.207031 L 415.359375 82.214844 L 406.722656 88.675781 L 413.65625 98.050781 L 424.40625 102.304688 L 428.132812 107.714844 " fill-opacity="1" fill-rule="nonzero"/><path fill="#da9b1d" d="M 421.847656 113.976562 L 412.042969 109.226562 L 406.722656 113.484375 L 395.410156 106.054688 L 392.242188 113.976562 L 404.914062 118.339844 L 412.613281 112.945312 L 421.847656 113.976562 " fill-opacity="1" fill-rule="nonzero"/><path fill="#da9b1d" d="M 442.207031 104.074219 L 442.101562 96.644531 L 438.378906 82.214844 L 447.191406 82.214844 L 445.902344 96.742188 L 442.207031 104.074219 " fill-opacity="1" fill-rule="nonzero"/><path fill="#737861" d="M 277.503906 229.007812 C 277.503906 229.007812 213.464844 277.5625 206.832031 308.464844 C 202.636719 328.023438 219.996094 336.199219 232.078125 330.851562 C 244.15625 325.5 272.164062 283.109375 274.199219 277.5625 C 276.234375 272.015625 277.503906 229.007812 277.503906 229.007812 " fill-opacity="1" fill-rule="nonzero"/><path fill="#f4b68c" d="M 335.265625 412.757812 C 335.265625 412.757812 331.070312 426.511719 331.097656 429.195312 C 331.121094 431.875 336.304688 444.734375 337.335938 443.191406 C 338.363281 441.648438 336.375 438.054688 336.480469 437.492188 C 336.589844 436.933594 339.664062 443.558594 340.617188 443.546875 C 341.566406 443.539062 341.722656 442.195312 341.722656 442.195312 C 341.722656 442.195312 343.015625 443.191406 343.679688 442.511719 C 344.34375 441.835938 342.664062 435.476562 342.765625 434.359375 C 342.867188 433.242188 347.433594 437.390625 348.765625 436.597656 C 350.097656 435.800781 348.472656 435.257812 347.011719 433.984375 C 345.546875 432.710938 343.722656 429.265625 343.707031 427.421875 C 343.691406 425.578125 347.398438 416.4375 344.957031 412.195312 C 342.511719 407.949219 336.8125 408.796875 335.265625 412.757812 " fill-opacity="1" fill-rule="nonzero"/><path fill="#3f434c" d="M 190.289062 474.359375 L 182.960938 473.265625 L 197.988281 372.542969 C 198.917969 366.300781 203.472656 361.277344 209.585938 359.734375 L 243.492188 351.191406 C 247.707031 350.136719 252.207031 350.890625 255.839844 353.277344 C 259.472656 355.660156 261.957031 359.492188 262.660156 363.78125 L 277.503906 454.304688 L 270.195312 455.503906 L 255.351562 364.980469 C 254.976562 362.699219 253.707031 360.742188 251.773438 359.472656 C 249.84375 358.207031 247.542969 357.816406 245.300781 358.382812 L 211.394531 366.921875 C 208.191406 367.730469 205.804688 370.367188 205.3125 373.636719 L 190.289062 474.359375 " fill-opacity="1" fill-rule="nonzero"/><path fill="#3f434c" d="M 340.53125 374.761719 C 339.59375 374.761719 338.679688 374.296875 338.140625 373.445312 C 337.296875 372.128906 337.6875 370.375 339.003906 369.539062 C 351.910156 361.320312 351.941406 347.679688 351.9375 347.539062 C 351.925781 345.976562 353.183594 344.695312 354.746094 344.679688 C 354.757812 344.679688 354.765625 344.679688 354.773438 344.679688 C 356.324219 344.679688 357.589844 345.933594 357.605469 347.488281 C 357.609375 348.175781 357.574219 364.433594 342.046875 374.316406 C 341.578125 374.617188 341.050781 374.761719 340.53125 374.761719 " fill-opacity="1" fill-rule="nonzero"/><path fill="#3f434c" d="M 260.285156 362.609375 C 259.347656 362.609375 258.429688 362.144531 257.890625 361.292969 C 257.050781 359.976562 257.441406 358.222656 258.761719 357.382812 C 271.667969 349.167969 271.695312 335.523438 271.695312 335.386719 C 271.679688 333.820312 272.9375 332.539062 274.5 332.527344 C 274.511719 332.527344 274.519531 332.527344 274.527344 332.527344 C 276.082031 332.527344 277.34375 333.78125 277.359375 335.335938 C 277.363281 336.023438 277.328125 352.277344 261.800781 362.164062 C 261.332031 362.464844 260.804688 362.609375 260.285156 362.609375 " fill-opacity="1" fill-rule="nonzero"/><path fill="#51a1a7" d="M 268.078125 341.289062 C 264.308594 339.480469 261.902344 335.648438 261.914062 331.464844 C 261.921875 329.480469 262.054688 327.179688 262.433594 324.730469 C 263.464844 318.015625 268.171875 288.105469 269.203125 281.542969 C 269.394531 280.328125 269.777344 279.15625 270.363281 278.082031 C 272.054688 274.972656 276.339844 269.492188 285.964844 268.058594 C 299.617188 266.023438 333.609375 261.664062 356.558594 271.257812 C 379.507812 280.847656 378.34375 288.695312 377.476562 297.703125 C 376.601562 306.710938 371.554688 347.566406 367.886719 352.050781 C 366.488281 353.761719 356.265625 351.761719 341.453125 355.394531 C 327.664062 358.773438 293.992188 353.722656 268.078125 341.289062 " fill-opacity="1" fill-rule="nonzero"/><path fill="#51a1a7" d="M 303.605469 363.304688 C 297.953125 363.257812 292.332031 362.429688 286.914062 360.820312 C 271.972656 356.382812 261.277344 350.644531 246.746094 353.792969 C 229.3125 357.574219 201.136719 358.734375 199.972656 375.589844 C 198.8125 392.445312 234.542969 398.839844 251.101562 399.421875 C 267.660156 400 290.902344 393.316406 305.71875 389.828125 C 320.535156 386.34375 353.363281 379.367188 354.523438 373.554688 C 355.6875 367.742188 352.78125 362.804688 345.519531 363.238281 C 340.152344 363.558594 315.898438 363.40625 303.605469 363.304688 " fill-opacity="1" fill-rule="nonzero"/><path fill="#3f434c" d="M 281.023438 498.898438 L 273.695312 497.804688 L 288.722656 397.082031 C 289.652344 390.839844 294.203125 385.816406 300.320312 384.273438 L 334.222656 375.730469 C 338.4375 374.671875 342.9375 375.429688 346.570312 377.816406 C 350.203125 380.199219 352.691406 384.03125 353.394531 388.320312 L 368.238281 478.84375 L 360.925781 480.042969 L 346.085938 389.519531 C 345.707031 387.238281 344.441406 385.28125 342.507812 384.011719 C 340.574219 382.742188 338.273438 382.355469 336.035156 382.917969 L 302.128906 391.460938 C 298.921875 392.269531 296.535156 394.90625 296.046875 398.171875 L 281.023438 498.898438 " fill-opacity="1" fill-rule="nonzero"/><path fill="#3f434c" d="M 73.15625 493.195312 C 73.992188 492.300781 74.410156 491.054688 73.964844 489.421875 C 72.863281 485.359375 69.226562 477.28125 64.96875 475.925781 C 64.96875 475.925781 50.460938 471.554688 47.484375 468.898438 C 45.292969 466.941406 44.222656 466.1875 43.386719 466.476562 C 43.386719 466.476562 39.511719 465.371094 39.003906 471.96875 C 38.5 478.570312 43.011719 482.429688 44.210938 484.292969 C 45.40625 486.152344 62.695312 497.589844 64.636719 497.792969 C 66.578125 498.003906 72.40625 494.375 73.15625 493.195312 " fill-opacity="1" fill-rule="nonzero"/><path fill="#f4b68c" d="M 67.570312 475.082031 L 63.921875 477.503906 L 63.632812 480.273438 C 63.347656 482.949219 64.253906 485.628906 66.148438 487.542969 C 67.699219 489.101562 69.6875 490.488281 71.648438 490.117188 C 73.492188 489.765625 83.15625 480.613281 87.492188 478.273438 C 91.648438 476.03125 83.34375 457.835938 75.855469 466.402344 C 75.050781 467.320312 68.585938 474.40625 67.570312 475.082031 " fill-opacity="1" fill-rule="nonzero"/><path fill="#3f434c" d="M 60.484375 474.488281 C 60.484375 474.488281 62.398438 474.773438 64.054688 473.84375 C 65.710938 472.914062 67.214844 477.191406 67.269531 479.914062 C 67.324219 482.640625 65.664062 483.882812 63.65625 483.542969 C 61.648438 483.199219 56.921875 478.757812 60.484375 474.488281 " fill-opacity="1" fill-rule="nonzero"/><path fill="#efe7d0" d="M 234.15625 325.839844 C 234.15625 325.839844 191.730469 346.328125 163.097656 362.726562 C 141.378906 375.160156 70.601562 469.457031 70.601562 469.457031 C 70.601562 469.457031 70.023438 473.179688 79.496094 481.136719 C 89.234375 489.324219 94.679688 487.496094 94.679688 487.496094 C 94.679688 487.496094 168.457031 428.652344 185.753906 400.546875 C 185.753906 400.546875 245.425781 373.425781 256.460938 368.089844 C 273.160156 360.019531 260.074219 328.171875 234.15625 325.839844 " fill-opacity="1" fill-rule="nonzero"/><path fill="#3f434c" d="M 268.714844 245.394531 C 268.714844 245.394531 260.390625 261 254.550781 270.976562 C 244.898438 287.46875 233.347656 319.90625 233.347656 319.90625 L 257.449219 324.289062 L 268.714844 245.394531 " fill-opacity="1" fill-rule="nonzero"/><path fill="#3f434c" d="M 226.125 495.535156 C 225.539062 494.464844 224.484375 493.679688 222.796875 493.589844 C 218.59375 493.371094 209.789062 494.3125 207.171875 497.933594 C 207.171875 497.933594 198.5 510.363281 195.046875 512.363281 C 192.503906 513.839844 191.457031 514.617188 191.472656 515.507812 C 191.472656 515.507812 189.210938 518.84375 195.320312 521.382812 C 201.433594 523.921875 206.503906 520.835938 208.644531 520.277344 C 210.789062 519.71875 227.039062 506.851562 227.839844 505.066406 C 228.644531 503.289062 227.011719 496.617188 226.125 495.535156 " fill-opacity="1" fill-rule="nonzero"/><path fill="#f4b68c" d="M 207.179688 495.199219 L 208.347656 499.421875 L 210.886719 500.5625 C 213.339844 501.667969 216.167969 501.640625 218.574219 500.433594 C 220.539062 499.449219 222.476562 497.992188 222.734375 496.011719 C 222.976562 494.148438 220.128906 492.507812 219.257812 487.65625 C 218.425781 483.007812 199.925781 482.066406 205.730469 491.855469 C 206.351562 492.90625 206.855469 494.023438 207.179688 495.199219 " fill-opacity="1" fill-rule="nonzero"/><path fill="#3f434c" d="M 204.410156 501.75 C 204.410156 501.75 205.277344 500.019531 204.910156 498.15625 C 204.546875 496.292969 209.074219 496.195312 211.679688 496.992188 C 214.285156 497.792969 214.945312 499.753906 213.996094 501.558594 C 213.046875 503.359375 207.355469 506.46875 204.410156 501.75 " fill-opacity="1" fill-rule="nonzero"/><path fill="#efe7d0" d="M 281.601562 335.71875 C 281.601562 335.71875 205.550781 342.871094 188.074219 352.640625 C 163.535156 366.363281 180.890625 435.144531 194.851562 496.515625 C 194.851562 496.515625 216.359375 496.046875 228.058594 485.050781 C 228.058594 485.050781 224.445312 480.738281 224.113281 472.507812 C 223.945312 468.394531 221.335938 463.644531 221.152344 458.527344 C 220.90625 451.726562 222.308594 445.851562 223.136719 437.078125 C 224.847656 418.90625 220.011719 409.5625 220.296875 405.050781 C 220.523438 401.421875 222.421875 394.96875 219.191406 391.230469 C 219.191406 391.230469 222 391.609375 228.957031 390.828125 C 234.882812 390.164062 240.484375 384.847656 248.765625 385.199219 C 271.632812 386.183594 297.851562 380.894531 303.90625 377.964844 C 320.605469 369.890625 307.519531 338.042969 281.601562 335.71875 " fill-opacity="1" fill-rule="nonzero"/><path fill="#737861" d="M 234.238281 328.246094 C 250.957031 349.605469 274.050781 339.109375 288.078125 362.976562 C 301.5 385.808594 312.21875 372.691406 312.21875 372.691406 C 312.21875 372.691406 354.246094 310.933594 349.089844 268.78125 C 343.9375 226.625 302.625 213.359375 279.984375 227.136719 C 267.40625 234.796875 268.457031 254.777344 257.449219 283.507812 C 252.613281 296.128906 228.449219 320.851562 234.238281 328.246094 " fill-opacity="1" fill-rule="nonzero"/><path fill="#3f434c" d="M 323.074219 275.585938 C 323.074219 275.585938 321.355469 328.621094 323 338.128906 C 323.816406 342.84375 324.777344 347.195312 325.539062 350.382812 C 329.351562 343.339844 333.492188 335.0625 337.242188 326.199219 L 323.074219 275.585938 " fill-opacity="1" fill-rule="nonzero"/><path fill="#f4b68c" d="M 317.707031 228.78125 C 317.707031 228.78125 311.085938 225.066406 305.589844 227.445312 C 300.09375 229.820312 306.28125 236.261719 315.097656 237.25 C 323.90625 238.242188 326.121094 236.15625 325.558594 233.832031 C 324.996094 231.507812 317.707031 228.78125 317.707031 228.78125 " fill-opacity="1" fill-rule="nonzero"/><path fill="#3f434c" d="M 319.074219 189.722656 C 319.074219 189.722656 315.460938 191.082031 313.683594 195 C 311.910156 198.914062 312.800781 202.503906 315.566406 203.363281 C 318.332031 204.21875 327.707031 190.25 319.074219 189.722656 " fill-opacity="1" fill-rule="nonzero"/><path fill="#3f434c" d="M 340.503906 205.46875 C 340.503906 205.46875 335 221.558594 325.074219 219.363281 C 318.511719 217.910156 339.601562 198.335938 340.503906 205.46875 " fill-opacity="1" fill-rule="nonzero"/><path fill="#f4b68c" d="M 328.863281 196.554688 C 332.5 199.152344 333.839844 203.929688 332.101562 208.046875 C 329.515625 214.167969 326.246094 219.457031 324.355469 220.625 C 320.347656 223.113281 309.496094 220.378906 306.246094 216.789062 C 304.296875 214.632812 305.191406 211.9375 307.136719 207.925781 C 308.429688 205.253906 310.042969 203.34375 310.648438 202.238281 C 312.167969 199.476562 316.238281 189.757812 321.660156 192.332031 C 323.976562 193.429688 326.609375 194.945312 328.863281 196.554688 " fill-opacity="1" fill-rule="nonzero"/><path fill="#f4b68c" d="M 327.738281 216.300781 C 327.738281 216.300781 326.023438 220.144531 325.054688 224.75 C 324.292969 228.355469 323.992188 231.910156 322.695312 232.632812 C 319.945312 234.164062 311.574219 232.074219 310.382812 230.449219 C 309.195312 228.820312 314.949219 217.605469 314.949219 217.605469 L 327.738281 216.300781 " fill-opacity="1" fill-rule="nonzero"/><path fill="#3f434c" d="M 322.46875 207.050781 C 322.371094 207.050781 322.273438 207.003906 322.214844 206.914062 C 321.960938 206.511719 321.171875 205.410156 320.550781 205.101562 C 319.902344 204.78125 319.507812 205.035156 319.492188 205.042969 C 319.355469 205.132812 319.171875 205.101562 319.078125 204.96875 C 318.988281 204.835938 319.015625 204.652344 319.148438 204.5625 C 319.175781 204.539062 319.832031 204.082031 320.8125 204.570312 C 321.714844 205.015625 322.679688 206.53125 322.71875 206.59375 C 322.808594 206.734375 322.765625 206.914062 322.625 207.007812 C 322.578125 207.035156 322.523438 207.050781 322.46875 207.050781 " fill-opacity="1" fill-rule="nonzero"/><path fill="#3f434c" d="M 314.773438 202.363281 C 314.683594 202.363281 314.597656 202.324219 314.539062 202.253906 C 314.53125 202.242188 313.453125 200.953125 312.410156 201.269531 C 312.253906 201.320312 312.085938 201.230469 312.039062 201.074219 C 311.992188 200.917969 312.078125 200.753906 312.238281 200.703125 C 313.660156 200.269531 314.949219 201.8125 315 201.878906 C 315.105469 202.003906 315.085938 202.191406 314.960938 202.296875 C 314.90625 202.339844 314.835938 202.363281 314.773438 202.363281 " fill-opacity="1" fill-rule="nonzero"/><path fill="#3f434c" d="M 319.699219 204.664062 C 319.699219 204.664062 318.347656 206.34375 319.546875 207.125 C 320.746094 207.910156 321.886719 206.234375 321.863281 205.921875 C 321.84375 205.613281 321.085938 204.632812 319.699219 204.664062 " fill-opacity="1" fill-rule="nonzero"/><path fill="#3f434c" d="M 312.242188 200.8125 C 312.242188 200.8125 311.023438 202.554688 311.886719 203.1875 C 312.75 203.824219 313.804688 202.109375 313.816406 201.8125 C 313.828125 201.515625 313.332031 200.652344 312.242188 200.8125 " fill-opacity="1" fill-rule="nonzero"/><path fill="#3f434c" d="M 324.285156 205.070312 C 324.210938 205.070312 324.132812 205.042969 324.074219 204.984375 C 322.140625 203.023438 319.859375 201.921875 319.835938 201.910156 C 319.6875 201.839844 319.625 201.664062 319.695312 201.515625 C 319.765625 201.367188 319.941406 201.304688 320.089844 201.375 C 320.1875 201.421875 322.488281 202.527344 324.5 204.5625 C 324.613281 204.679688 324.613281 204.871094 324.496094 204.984375 C 324.4375 205.042969 324.359375 205.070312 324.285156 205.070312 " fill-opacity="1" fill-rule="nonzero"/><path fill="#3f434c" d="M 316.113281 199.550781 C 316.074219 199.550781 316.039062 199.546875 316 199.53125 L 313.21875 198.40625 C 313.066406 198.34375 312.992188 198.171875 313.054688 198.015625 C 313.117188 197.867188 313.289062 197.792969 313.441406 197.855469 L 316.222656 198.980469 C 316.378906 199.039062 316.449219 199.214844 316.390625 199.367188 C 316.339844 199.480469 316.230469 199.550781 316.113281 199.550781 " fill-opacity="1" fill-rule="nonzero"/><path fill="#d68472" d="M 313.660156 211.414062 C 313.632812 211.414062 313.605469 211.414062 313.582031 211.402344 C 310.613281 210.582031 309.507812 209.199219 309.460938 209.144531 C 309.359375 209.011719 309.382812 208.828125 309.511719 208.726562 C 309.640625 208.625 309.828125 208.648438 309.929688 208.777344 C 309.9375 208.789062 310.980469 210.066406 313.738281 210.828125 C 313.898438 210.875 313.992188 211.039062 313.945312 211.195312 C 313.914062 211.328125 313.792969 211.414062 313.660156 211.414062 " fill-opacity="1" fill-rule="nonzero"/><path fill="#3f434c" d="M 318.847656 194.054688 C 317 192.410156 316.617188 189.609375 318.089844 187.617188 C 318.152344 187.53125 318.21875 187.445312 318.292969 187.355469 C 320.578125 184.574219 325.320312 183.285156 328.890625 185.21875 C 334.503906 188.261719 335.285156 192.933594 338.742188 195.15625 C 342.203125 197.375 343.417969 198.457031 343.523438 199.777344 C 343.632812 201.097656 338.921875 205.660156 331.0625 202.113281 C 325.398438 199.550781 320.910156 195.898438 318.847656 194.054688 " fill-opacity="1" fill-rule="nonzero"/><path fill="#3f434c" d="M 326.808594 199.507812 C 326.714844 199.824219 327.582031 202.449219 328.992188 204.132812 C 330.398438 205.824219 328.753906 208.21875 328.132812 209.363281 C 327.515625 210.507812 325.121094 211.339844 325.335938 212.378906 C 325.546875 213.414062 327.679688 214.382812 328.640625 213.738281 C 329.597656 213.097656 333.175781 213.074219 333.175781 213.074219 C 333.175781 213.074219 337.398438 210.550781 339.210938 208 C 341.023438 205.449219 341.472656 202.394531 339.628906 201.242188 C 337.777344 200.09375 327.476562 197.203125 326.808594 199.507812 " fill-opacity="1" fill-rule="nonzero"/><path fill="#f4b68c" d="M 328.988281 212.34375 C 329.785156 211.867188 330.738281 211.683594 331.640625 211.902344 C 332.621094 212.144531 333.609375 212.832031 333.300781 214.691406 C 332.734375 218.160156 325.632812 219.695312 325.558594 216.78125 C 325.507812 214.738281 327.679688 213.125 328.988281 212.34375 " fill-opacity="1" fill-rule="nonzero"/><path fill="#d68472" d="M 327.097656 217.078125 C 327.078125 217.078125 327.0625 217.078125 327.046875 217.074219 C 326.886719 217.042969 326.777344 216.890625 326.804688 216.730469 C 326.816406 216.675781 327.050781 215.425781 327.953125 215.371094 C 328.378906 215.34375 328.742188 215.597656 329.0625 215.820312 C 329.300781 215.988281 329.546875 216.164062 329.691406 216.105469 C 330.148438 215.921875 330.996094 215.34375 331.347656 214.574219 C 331.625 213.96875 331.261719 213.570312 331.246094 213.550781 C 331.136719 213.433594 331.136719 213.246094 331.257812 213.136719 C 331.375 213.023438 331.558594 213.023438 331.671875 213.136719 C 331.699219 213.167969 332.335938 213.835938 331.886719 214.824219 C 331.460938 215.753906 330.472656 216.429688 329.910156 216.65625 C 329.472656 216.835938 329.070312 216.554688 328.71875 216.308594 C 328.46875 216.132812 328.203125 215.945312 327.988281 215.964844 C 327.628906 215.984375 327.429688 216.617188 327.390625 216.835938 C 327.363281 216.976562 327.238281 217.078125 327.097656 217.078125 " fill-opacity="1" fill-rule="nonzero"/><path fill="#d68472" d="M 315.472656 205.144531 C 315.539062 204.921875 315.3125 204.726562 315.105469 204.820312 C 314.507812 205.085938 313.449219 205.457031 312.058594 205.53125 C 310.007812 205.640625 309.535156 206.742188 311.664062 207.671875 C 313.792969 208.601562 314.046875 208.539062 314.613281 207.492188 C 314.910156 206.929688 315.265625 205.832031 315.472656 205.144531 " fill-opacity="1" fill-rule="nonzero"/><path fill="#efe7d0" d="M 289.898438 218.480469 C 289.898438 218.480469 299.335938 215.695312 302.074219 213.945312 C 304.339844 212.492188 305.6875 211.546875 305.6875 211.546875 C 305.6875 211.546875 306.5625 213.109375 307.71875 215.0625 C 310.550781 219.871094 322.46875 231.753906 322.46875 231.753906 L 325.980469 230.171875 L 306.167969 210.035156 L 289.898438 215.484375 L 289.898438 218.480469 " fill-opacity="1" fill-rule="nonzero"/><path fill="#d06a47" d="M 288.609375 215.707031 L 289.898438 215.484375 L 306.167969 210.035156 L 324.945312 229.121094 L 327.738281 231.753906 L 351.121094 208.960938 L 326.449219 185.984375 C 325.890625 185.460938 325.113281 185.242188 324.363281 185.390625 L 310.277344 188.195312 L 288.609375 215.707031 " fill-opacity="1" fill-rule="nonzero"/><path fill="#d67849" d="M 303.3125 210.996094 L 306.167969 210.035156 L 308.441406 212.347656 L 327.964844 187.394531 L 326.449219 185.984375 C 325.890625 185.460938 325.113281 185.242188 324.363281 185.390625 L 322.558594 185.75 L 303.3125 210.996094 " fill-opacity="1" fill-rule="nonzero"/><path fill="#d67849" d="M 330.070312 197.507812 L 322.269531 205.699219 L 334.300781 215.671875 L 342.582031 207.761719 L 330.070312 197.507812 " fill-opacity="1" fill-rule="nonzero"/><path fill="#3f434c" d="M 177.609375 412.230469 C 177.234375 412.230469 176.910156 411.949219 176.871094 411.570312 C 176.863281 411.484375 175.964844 403.1875 175.601562 393.472656 C 175.117188 380.378906 175.785156 371.074219 177.589844 365.832031 C 181.96875 353.101562 189.070312 350.359375 197.902344 348.101562 C 206.4375 345.917969 226.378906 341.265625 226.578125 341.21875 C 226.980469 341.125 227.375 341.375 227.472656 341.777344 C 227.5625 342.171875 227.316406 342.574219 226.914062 342.667969 C 226.714844 342.710938 206.789062 347.359375 198.269531 349.539062 C 189.597656 351.761719 183.140625 354.261719 178.992188 366.3125 C 174.816406 378.453125 178.3125 411.078125 178.347656 411.410156 C 178.390625 411.816406 178.097656 412.183594 177.691406 412.226562 C 177.664062 412.230469 177.636719 412.230469 177.609375 412.230469 " fill-opacity="1" fill-rule="nonzero"/><path fill="#737861" d="M 347.648438 262.113281 C 347.648438 262.113281 357.605469 303.710938 357.605469 339.171875 C 357.605469 360.25 354.722656 391.953125 353.363281 405.738281 C 352.945312 409.9375 350.304688 413.585938 346.445312 415.289062 L 344.851562 415.996094 C 342.472656 417.046875 339.8125 417.273438 337.292969 416.640625 C 331.761719 415.257812 328.03125 410.089844 328.46875 404.402344 L 329.425781 339.496094 C 329.425781 339.496094 320.285156 271.402344 323.808594 263.300781 C 332.425781 243.492188 347.648438 262.113281 347.648438 262.113281 " fill-opacity="1" fill-rule="nonzero"/><path fill="#acdad7" d="M 308.640625 303.820312 L 230.777344 297.445312 C 228.285156 297.242188 225.871094 299.390625 225.386719 302.246094 L 217.789062 346.863281 C 217.304688 349.71875 218.929688 352.199219 221.421875 352.402344 L 299.285156 358.773438 C 301.78125 358.976562 304.195312 356.828125 304.679688 353.972656 L 312.277344 309.355469 C 312.761719 306.503906 311.132812 304.023438 308.640625 303.820312 " fill-opacity="1" fill-rule="nonzero"/><path fill="#3f434c" d="M 265.832031 319.5625 C 265.832031 319.5625 263.804688 319.324219 263.390625 321.648438 C 262.972656 323.976562 265.976562 325.550781 267.085938 322.933594 C 268.191406 320.3125 265.832031 319.5625 265.832031 319.5625 " fill-opacity="1" fill-rule="nonzero"/><path fill="#3f434c" d="M 262.585938 327.101562 C 262.574219 327.632812 260.292969 334.996094 261.5625 335.980469 C 262.835938 336.964844 263.914062 336.058594 264.222656 335.363281 C 264.535156 334.675781 266.253906 326.046875 265.207031 325.699219 C 264.15625 325.351562 262.644531 324.65625 262.585938 327.101562 " fill-opacity="1" fill-rule="nonzero"/><path fill="#3f434c" d="M 255.75 316.914062 C 252.144531 318.195312 249.074219 327.367188 247.804688 331.726562 C 247.4375 332.976562 248.03125 334.199219 249.113281 334.429688 L 250.207031 334.660156 C 251.015625 334.925781 251.929688 334.320312 252.207031 333.355469 C 252.523438 332.246094 253.0625 330.945312 253.929688 330.425781 C 254.996094 329.789062 254.632812 332.152344 254.242188 333.902344 C 254.03125 334.847656 254.546875 335.707031 255.375 335.800781 L 256.0625 335.878906 C 257.117188 335.992188 258.195312 335.234375 258.613281 334.058594 C 260.601562 328.453125 259.875 315.445312 255.75 316.914062 " fill-opacity="1" fill-rule="nonzero"/><path fill="#3f434c" d="M 277.554688 325.335938 C 277.089844 325.34375 276.625 325.761719 276.394531 326.367188 C 275.488281 328.746094 273.347656 334.675781 273.976562 335.730469 C 274.773438 337.0625 276.121094 336.578125 276.675781 335.542969 C 277.226562 334.496094 279.742188 326.207031 279.339844 325.6875 C 279.097656 325.371094 278.214844 325.324219 277.554688 325.335938 " fill-opacity="1" fill-rule="nonzero"/><path fill="#3f434c" d="M 301.8125 326.785156 C 302.09375 325.832031 301.761719 324.863281 301.011719 324.476562 C 300.007812 323.957031 298.523438 323.339844 297.117188 323.28125 C 292.539062 323.097656 286.957031 336.050781 293.902344 338.910156 C 300.84375 341.773438 300.394531 333.226562 300.394531 333.226562 L 301.6875 333.515625 L 302.253906 330.574219 C 302.253906 330.574219 296.714844 329.160156 296.402344 329.640625 C 296.089844 330.113281 296.035156 331.910156 296.632812 332.335938 C 297.234375 332.765625 298.128906 332.925781 298.128906 332.925781 C 298.128906 332.925781 297.84375 335.128906 296.59375 334.804688 C 295.347656 334.484375 294.46875 333.484375 295.066406 331.058594 C 295.667969 328.632812 296.71875 327.851562 297.601562 328.179688 C 298.488281 328.511719 300.25 329.320312 300.867188 328.914062 C 301.191406 328.703125 301.546875 327.699219 301.8125 326.785156 " fill-opacity="1" fill-rule="nonzero"/><path fill="#3f434c" d="M 278.613281 334.820312 C 278.613281 334.820312 281.464844 323.242188 282.300781 322.96875 C 283.132812 322.699219 285.164062 323.285156 285.5625 324.136719 C 285.960938 324.988281 284.5625 331.929688 285.035156 332.007812 C 285.507812 332.085938 287.972656 323.742188 289.050781 323.917969 C 290.128906 324.09375 291.164062 323.195312 291.117188 325.21875 C 291.066406 327.246094 288.089844 336.585938 286.277344 336.699219 C 284.464844 336.808594 283.351562 336.472656 283.085938 335.667969 C 282.816406 334.863281 282.484375 331.074219 282.484375 331.074219 C 282.484375 331.074219 281.878906 336.269531 280.707031 336.484375 C 280.03125 336.609375 279.375 336.3125 278.9375 336.039062 C 278.625 335.847656 278.492188 335.34375 278.613281 334.820312 " fill-opacity="1" fill-rule="nonzero"/><path fill="#3f434c" d="M 268.359375 321.75 C 268.5625 320.992188 269.160156 320.417969 269.804688 320.351562 C 272.082031 320.109375 277.257812 319.625 277.78125 320.121094 C 278.460938 320.757812 278.027344 323.21875 277.265625 323.769531 C 276.5 324.320312 274.625 324.074219 274.488281 324.398438 C 274.351562 324.722656 272.234375 334.78125 271.417969 335.195312 C 270.597656 335.613281 268.695312 335.757812 268.488281 334.972656 C 268.285156 334.1875 271.800781 324.847656 271.125 324.617188 C 270.449219 324.386719 268.574219 325.144531 268.054688 324.632812 C 267.738281 324.320312 268.058594 322.855469 268.359375 321.75 " fill-opacity="1" fill-rule="nonzero"/><path fill="#3f434c" d="M 229.179688 317.605469 C 229.179688 317.605469 229.171875 333.253906 233.054688 333.300781 C 236.941406 333.347656 238.652344 328.152344 238.652344 328.152344 C 238.652344 328.152344 238.472656 333.34375 242.070312 334.039062 C 245.667969 334.734375 252.386719 317.121094 249.179688 315.167969 C 245.972656 313.21875 244.101562 316.578125 243.832031 318.175781 C 243.558594 319.773438 242.027344 323.566406 242.027344 323.566406 C 242.027344 323.566406 242.148438 319.050781 239.800781 319.332031 C 237.449219 319.613281 236.472656 323.632812 236.472656 323.632812 C 236.472656 323.632812 236.257812 315.191406 233.792969 315.464844 C 231.328125 315.734375 229.179688 317.605469 229.179688 317.605469 " fill-opacity="1" fill-rule="nonzero"/><path fill="#f4b68c" d="M 218.914062 315.40625 C 218.804688 315.390625 218.464844 315.242188 218.375 315.117188 C 217.804688 314.328125 217.671875 312.332031 218.628906 311.230469 C 219.582031 310.125 225.648438 311.171875 226.417969 313.164062 C 227.085938 314.902344 225.367188 315.792969 224 315.925781 C 225.21875 316.394531 226.238281 317.0625 226.546875 317.867188 C 227.398438 320.082031 225.347656 321.027344 223.808594 320.921875 C 223.632812 320.910156 223.421875 320.890625 223.195312 320.867188 C 223.964844 321.210938 224.558594 321.574219 224.671875 321.78125 C 225.71875 323.6875 224.835938 325.992188 223.515625 325.792969 C 223.296875 325.757812 223.023438 325.710938 222.722656 325.65625 C 222.871094 326.117188 222.898438 326.667969 222.738281 327.320312 C 222.492188 328.3125 220.785156 328.148438 219.972656 327.953125 C 219.378906 327.8125 218.847656 326.941406 218.714844 325.859375 C 218.632812 325.175781 218.644531 324.480469 218.921875 324.101562 C 218.9375 324.078125 218.960938 324.066406 218.980469 324.046875 C 218.753906 323.621094 218.585938 323.09375 218.515625 322.511719 C 218.417969 321.671875 218.433594 320.8125 218.785156 320.328125 C 218.664062 320.3125 216.632812 318.578125 218.46875 315.695312 C 218.550781 315.5625 218.722656 315.480469 218.914062 315.40625 " fill-opacity="1" fill-rule="nonzero"/><path fill="#acdad7" d="M 273.726562 181.773438 C 272.964844 181.925781 272.390625 182.558594 272.335938 183.332031 C 272.277344 184.152344 272.378906 185.0625 273.109375 185.144531 C 274.453125 185.292969 276.597656 184.796875 276.597656 184.796875 C 276.597656 184.796875 273.328125 189.585938 273.277344 190.589844 C 273.222656 191.59375 273.363281 193.023438 275.316406 192.867188 C 277.269531 192.710938 281.328125 192.632812 281.871094 191.613281 C 282.414062 190.59375 282.207031 188.589844 280.863281 188.394531 C 279.519531 188.195312 277.394531 189.023438 277.394531 189.023438 C 277.394531 189.023438 281.886719 185.691406 280.890625 183.011719 C 280.074219 180.808594 275.824219 181.355469 273.726562 181.773438 " fill-opacity="1" fill-rule="nonzero"/><path fill="#acdad7" d="M 284.609375 163.1875 C 283.488281 163.410156 282.640625 164.351562 282.558594 165.492188 C 282.46875 166.695312 282.621094 168.042969 283.699219 168.160156 C 285.679688 168.382812 288.84375 167.648438 288.84375 167.648438 C 288.84375 167.648438 284.023438 174.707031 283.945312 176.191406 C 283.867188 177.675781 284.074219 179.785156 286.957031 179.554688 C 289.839844 179.324219 295.828125 179.210938 296.625 177.707031 C 297.425781 176.199219 297.121094 173.25 295.140625 172.957031 C 293.15625 172.667969 290.023438 173.890625 290.023438 173.890625 C 290.023438 173.890625 296.648438 168.972656 295.175781 165.015625 C 293.972656 161.769531 287.707031 162.570312 284.609375 163.1875 " fill-opacity="1" fill-rule="nonzero"/><path fill="#acdad7" d="M 265.078125 146.992188 C 263.953125 147.214844 263.109375 148.15625 263.027344 149.296875 C 262.9375 150.5 263.085938 151.847656 264.164062 151.96875 C 266.144531 152.1875 269.3125 151.457031 269.3125 151.457031 C 269.3125 151.457031 264.492188 158.515625 264.414062 160 C 264.335938 161.484375 264.539062 163.59375 267.421875 163.359375 C 270.304688 163.128906 276.292969 163.019531 277.09375 161.511719 C 277.890625 160.007812 277.589844 157.054688 275.609375 156.761719 C 273.625 156.472656 270.492188 157.695312 270.492188 157.695312 C 270.492188 157.695312 277.113281 152.777344 275.644531 148.820312 C 274.441406 145.574219 268.171875 146.378906 265.078125 146.992188 " fill-opacity="1" fill-rule="nonzero"/></svg>